<svg width="155" height="155" viewBox="0 0 155 155" fill="none" xmlns="http://www.w3.org/2000/svg">
<circle cx="77.5" cy="77.5" r="77.5" fill="#222222"/>
<path d="M57.3549 86.976C57.2589 88.464 56.8749 89.832 56.2029 91.08C55.5789 92.28 54.7149 92.88 53.6109 92.88C52.5549 92.88 51.6909 92.664 51.0189 92.232C50.3469 91.8 47.9709 90.096 43.8909 87.12C39.8109 84.144 36.3549 81.84 33.5229 80.208C30.7389 78.576 28.2909 77.568 26.1789 77.184C26.1789 74.208 28.2909 71.76 32.5149 69.84C34.0989 69.12 36.8109 67.992 40.6509 66.456C44.5389 64.872 47.5149 63.528 49.5789 62.424C51.6909 61.32 53.1549 60.216 53.9709 59.112C56.3229 60.648 57.4989 62.208 57.4989 63.792C57.4989 65.376 56.5869 66.624 54.7629 67.536C53.6109 68.112 50.7309 69.192 46.1229 70.776C41.5149 72.312 38.1549 73.608 36.0429 74.664C36.6669 75.096 38.1549 76.152 40.5069 77.832C42.9069 79.464 44.6109 80.616 45.6189 81.288C46.6749 81.912 48.0909 82.752 49.8669 83.808C53.0829 85.824 55.5789 86.88 57.3549 86.976ZM73.263 109.008C72.255 111.984 71.175 114.096 70.023 115.344C68.919 116.592 67.575 117.216 65.991 117.216C64.455 117.216 63.063 116.568 61.815 115.272C64.167 112.488 65.943 109.368 67.143 105.912C69.111 100.392 71.535 90.552 74.415 76.392C77.295 62.232 79.263 53.616 80.319 50.544C82.863 43.392 85.911 39.816 89.463 39.816C90.327 39.816 91.167 40.08 91.983 40.608C92.799 41.088 93.231 41.88 93.279 42.984C91.407 43.992 89.943 45.384 88.887 47.16C87.831 48.936 86.871 51.144 86.007 53.784C83.991 59.832 81.615 69.816 78.879 83.736C76.191 97.656 74.319 106.08 73.263 109.008ZM100.241 67.536C98.417 66.624 97.505 65.376 97.505 63.792C97.505 62.208 98.681 60.648 101.033 59.112C101.849 60.216 103.289 61.32 105.353 62.424C107.465 63.528 110.441 64.872 114.281 66.456C118.169 67.992 120.905 69.12 122.489 69.84C126.713 71.76 128.825 74.208 128.825 77.184C126.713 77.568 124.241 78.576 121.409 80.208C118.625 81.84 115.193 84.144 111.113 87.12C107.033 90.096 104.657 91.8 103.985 92.232C103.313 92.664 102.425 92.88 101.321 92.88C100.265 92.88 99.401 92.28 98.729 91.08C98.105 89.832 97.745 88.464 97.649 86.976C99.425 86.88 101.561 86.064 104.057 84.528C106.553 82.992 108.305 81.912 109.313 81.288C110.369 80.616 112.073 79.464 114.425 77.832C116.825 76.152 118.337 75.096 118.961 74.664C116.849 73.608 113.489 72.312 108.881 70.776C104.273 69.192 101.393 68.112 100.241 67.536Z" fill="#E7E61A"/>
</svg>