<svg width="200" height="179" viewBox="0 0 200 179" fill="none" xmlns="http://www.w3.org/2000/svg">
<rect width="200" height="178.003" rx="15" fill="#222222"/>
<path d="M94.2444 31.635C94.2444 33.8685 93.7131 35.8668 92.6505 37.6301C91.706 39.3933 90.4073 40.9215 88.7544 42.2145C87.1015 43.3901 85.2715 44.3892 83.2645 45.2121C81.2574 46.0349 79.3093 46.6227 77.4203 46.9753C77.1842 60.2585 76.6529 73.0715 75.8264 85.4143C75.1181 97.7571 73.9374 110.511 72.2845 123.677H73.3471C75.2361 123.677 77.0661 123.912 78.8371 124.382C80.7261 124.735 82.379 125.44 83.7958 126.498C85.3306 127.439 86.5112 128.673 87.3377 130.201C88.2822 131.612 88.7544 133.375 88.7544 135.491C88.7544 138.194 87.869 140.545 86.098 142.544C84.4451 144.542 82.2019 146.247 79.3684 147.657C76.6529 149.068 73.5832 150.243 70.1594 151.184C66.7355 152.124 63.3117 152.829 59.8878 153.3C56.464 153.887 53.2172 154.299 50.1476 154.534C47.0779 154.769 44.5986 154.887 42.7096 154.887C41.2928 154.887 39.5218 154.828 37.3967 154.71C35.3896 154.593 33.4416 154.24 31.5525 153.652C29.7816 153.065 28.2468 152.183 26.9481 151.007C25.6494 149.832 25 148.245 25 146.247C25 143.778 25.5313 141.603 26.5939 139.723C27.5384 137.724 28.8371 135.961 30.49 134.433C32.1429 132.905 33.9728 131.67 35.9799 130.73C38.1051 129.79 40.2302 129.084 42.3554 128.614C43.1818 122.149 43.9492 115.742 44.6576 109.395C45.366 102.929 45.8383 96.4053 46.0744 89.8224C46.3105 83.1221 46.5466 76.5393 46.7828 70.074C47.0189 63.4912 47.255 56.9083 47.4911 50.3255C46.6647 50.4431 45.8973 50.5606 45.1889 50.6782C44.4805 50.6782 43.8312 50.6782 43.2409 50.6782C41.588 50.6782 39.817 50.5018 37.928 50.1492C36.039 49.7965 34.268 49.2088 32.6151 48.3859C30.9622 47.4455 29.5455 46.3288 28.3648 45.0358C27.3022 43.7427 26.771 42.097 26.771 40.0986C26.771 36.1019 28.4238 32.8105 31.7296 30.2244C35.1535 27.6383 39.1677 25.64 43.7721 24.2293C48.4947 22.8187 53.2763 21.8783 58.1169 21.4081C62.9575 20.8204 66.8536 20.5265 69.8052 20.5265C71.4581 20.5265 73.6423 20.6441 76.3577 20.8792C79.0732 21.1143 81.7296 21.6432 84.327 22.4661C87.0425 23.2889 89.3447 24.4057 91.2338 25.8163C93.2408 27.2269 94.2444 29.1665 94.2444 31.635Z" fill="#E7E61A"/>
<path d="M175 61.6104C175 63.8438 174.705 66.1948 174.115 68.6634C173.642 71.1319 172.816 73.4242 171.635 75.5401C170.455 77.656 168.92 79.4192 167.031 80.8298C165.142 82.2404 162.839 82.9457 160.124 82.9457C155.992 82.9457 152.922 82.2404 150.915 80.8298C148.908 79.3017 147.491 77.4209 146.665 75.1874C145.838 72.954 145.366 70.603 145.248 68.1344C145.248 65.5483 145.189 63.1385 145.071 60.9051C144.953 58.6716 144.54 56.8496 143.831 55.439C143.241 53.9108 141.883 53.1467 139.758 53.1467C137.397 53.1467 135.331 54.0284 133.56 55.7916C131.789 57.4373 130.254 59.612 128.955 62.3157C127.656 65.0193 126.535 68.0756 125.59 71.4846C124.764 74.8936 124.055 78.3025 123.465 81.7115C122.993 85.0029 122.639 88.1767 122.403 91.233C122.166 94.1718 122.048 96.5816 122.048 98.4624C122.048 100.931 122.107 103.87 122.226 107.279C122.462 110.688 123.052 113.979 123.996 117.153C124.941 120.209 126.358 122.854 128.247 125.088C130.136 127.203 132.851 128.261 136.393 128.261C138.754 128.261 141.057 127.968 143.3 127.38C145.543 126.792 147.786 126.146 150.03 125.44C152.273 124.617 154.516 123.912 156.759 123.324C159.12 122.737 161.482 122.443 163.843 122.443C166.558 122.443 168.802 123.559 170.573 125.793C172.344 127.909 173.229 130.319 173.229 133.022C173.229 136.784 172.048 140.31 169.687 143.602C167.326 146.776 164.374 149.597 160.832 152.065C157.409 154.534 153.63 156.473 149.498 157.884C145.484 159.295 141.824 160 138.518 160C130.018 160 122.816 158.06 116.913 154.181C111.009 150.42 106.228 145.541 102.568 139.546C98.9079 133.434 96.2515 126.674 94.5986 119.269C93.0638 111.746 92.2963 104.281 92.2963 96.8755C92.2963 91.9384 92.7686 86.531 93.7131 80.6535C94.6576 74.776 96.0744 68.8985 97.9634 63.021C99.8524 57.0259 102.214 51.2659 105.047 45.7411C107.999 40.2162 111.423 35.3379 115.319 31.106C119.215 26.8742 123.583 23.4653 128.424 20.8792C133.383 18.2931 138.813 17 144.717 17C150.502 17 155.342 18.4694 159.238 21.4081C163.135 24.2293 166.263 27.8734 168.625 32.3403C170.986 36.6897 172.639 41.5092 173.583 46.799C174.528 51.9712 175 56.9083 175 61.6104Z" fill="#E7E61A"/>
</svg>
