<?xml version="1.0" standalone="no"?>
<!DOCTYPE svg PUBLIC "-//W3C//DTD SVG 20010904//EN"
 "http://www.w3.org/TR/2001/REC-SVG-20010904/DTD/svg10.dtd">
<svg version="1.0" xmlns="http://www.w3.org/2000/svg"
 width="2500.000000pt" height="2500.000000pt" viewBox="0 0 2500.000000 2500.000000"
 preserveAspectRatio="xMidYMid meet">
<metadata>
Created by potrace 1.14, written by Peter Selinger 2001-2017
</metadata>
<g transform="translate(0.000000,2500.000000) scale(0.100000,-0.100000)"
fill="#000000" stroke="none">
<path d="M2255 23619 c-595 -61 -1126 -316 -1541 -741 -410 -419 -645 -926
-704 -1517 -14 -144 -14 -17568 0 -17712 49 -488 216 -912 513 -1304 85 -110
282 -312 400 -406 395 -318 846 -502 1350 -549 78 -8 3199 -10 10302 -8 9634
3 10195 4 10288 21 418 74 721 191 1032 400 116 78 170 120 280 220 472 429
751 985 815 1626 14 144 14 17568 0 17712 -61 610 -314 1139 -746 1559 -388
377 -825 594 -1389 688 -93 15 -822 17 -10310 18 -5615 1 -10246 -2 -10290 -7z
m16500 -1489 c912 -61 1569 -371 2235 -1056 440 -453 800 -1051 1074 -1786
247 -664 412 -1524 482 -2518 21 -295 24 -831 6 -990 -32 -284 -117 -712 -187
-944 -136 -447 -379 -861 -666 -1130 -270 -254 -511 -379 -829 -431 -288 -47
-746 -21 -1067 61 -315 80 -504 195 -726 442 -174 194 -289 418 -381 742 -87
305 -113 520 -121 1000 -15 908 -47 1142 -196 1457 -76 158 -196 246 -383 278
-286 49 -597 -32 -849 -221 -105 -79 -309 -289 -411 -423 -266 -349 -532 -920
-726 -1557 -101 -330 -235 -929 -339 -1514 -79 -438 -170 -1327 -201 -1955
-20 -417 -6 -1419 26 -1770 50 -564 185 -1141 359 -1541 129 -295 350 -636
511 -785 205 -190 472 -304 792 -339 144 -16 510 -8 682 15 352 46 888 190
1590 425 710 239 1055 313 1520 327 170 5 224 3 310 -11 297 -50 512 -185 731
-459 244 -304 350 -632 335 -1032 -13 -357 -90 -654 -251 -976 -156 -309 -358
-574 -694 -909 -553 -551 -1277 -1019 -2015 -1302 -757 -290 -1330 -393 -1996
-359 -715 37 -1270 151 -1825 373 -721 290 -1513 874 -2088 1538 -360 417
-640 848 -927 1425 -615 1239 -926 2545 -1042 4380 -17 267 -17 1220 0 1465
68 997 211 1905 447 2850 281 1123 646 2135 1128 3130 344 712 843 1464 1372
2070 163 187 550 570 730 724 581 498 1227 878 1827 1076 550 182 1202 267
1763 230z m-9685 -494 c512 -40 766 -80 1125 -177 381 -104 666 -218 920 -372
346 -209 499 -382 577 -652 21 -73 23 -100 23 -295 -1 -236 -13 -316 -74 -500
-50 -148 -173 -374 -288 -528 -84 -112 -254 -283 -363 -366 -368 -277 -960
-531 -1497 -642 -29 -6 -30 -10 -43 -659 -29 -1437 -85 -2719 -200 -4570 -110
-1752 -237 -3162 -425 -4718 -25 -202 -45 -374 -45 -381 0 -11 38 -15 168 -20
297 -12 457 -34 756 -106 249 -59 390 -120 595 -258 247 -167 356 -277 485
-491 153 -253 200 -425 200 -731 0 -379 -101 -655 -348 -950 -248 -298 -537
-512 -991 -735 -559 -275 -1204 -479 -1985 -629 -126 -24 -210 -38 -695 -115
-634 -101 -1128 -150 -1830 -182 -262 -11 -587 -8 -945 11 -705 38 -1200 210
-1521 530 -185 185 -257 424 -230 766 21 274 73 462 193 699 147 294 256 451
446 647 394 406 877 670 1546 843 70 19 131 37 134 40 10 10 182 1421 282
2305 109 975 168 1717 210 2625 18 412 202 5616 198 5620 -2 3 -76 -7 -164
-21 -149 -24 -174 -25 -409 -20 -740 16 -1267 167 -1693 486 -114 85 -294 260
-345 334 -121 179 -175 402 -164 676 21 474 211 867 572 1179 346 298 902 603
1470 806 373 132 978 283 1461 364 446 75 1275 166 1829 201 196 13 830 4
1065 -14z"/>
</g>
</svg>
