<svg id="Capa_1" enable-background="new 0 0 512 512" height="512" viewBox="0 0 512 512" width="512" xmlns="http://www.w3.org/2000/svg" xmlns:xlink="http://www.w3.org/1999/xlink"><linearGradient id="SVGID_1_" gradientUnits="userSpaceOnUse" x1="256" x2="256" y1="405" y2="0"><stop offset="0" stop-color="#ffc2cc"/><stop offset="1" stop-color="#fff2f4"/></linearGradient><linearGradient id="SVGID_2_" gradientUnits="userSpaceOnUse" x1="256" x2="256" y1="512" y2="180"><stop offset="0" stop-color="#fd3a84"/><stop offset="1" stop-color="#ffa68d"/></linearGradient><g><g><g><path d="m136 405h240v-120h-240zm120-405c-90.901 0-165 74.099-165 165 0 11.7 1.199 23.099 3.3 33.3 1.5 6.899 7.5 11.7 14.7 11.7h147c-24.901 0-45-20.101-45-45 0-24.901 20.099-45 45-45s45 20.099 45 45c0 24.899-20.099 45-45 45h147.001c7.2 0 13.2-4.801 14.7-11.7 2.1-10.201 3.3-21.599 3.3-33.3-.001-90.901-74.1-165-165.001-165z" fill="url(#SVGID_1_)"/></g></g><g><g><path d="m436 180h-360c-8.401 0-15 6.599-15 15v302c0 8.399 6.599 15 15 15h360c8.401 0 15-6.601 15-15v-302c0-8.401-6.599-15-15-15zm-229.501 184.499c6 5.7 6 15.3 0 21-5.396 6-15.6 6.002-20.999 0l-30-30c-6-5.7-6-15.3 0-21l30-30c5.7-5.999 15.298-5.999 20.999 0 6 5.7 6 15.3 0 21l-19.198 19.501zm71.701-45.899-15 60c-2.556 9.799-13.626 13.14-18.3 10.8-8.101-1.8-12.9-9.901-11.1-17.999l15-60c2.1-8.101 10.199-12.9 18.3-10.801 8.1 1.799 12.9 9.899 11.1 18zm78.299 36.899-30 30c-5.396 6-15.6 6.002-20.999 0-6-5.7-6-15.3 0-21l19.199-19.499-19.199-19.501c-6-5.7-6-15.3 0-21 5.7-5.999 15.298-5.999 20.999 0l30 30c6.001 5.7 6.001 15.3 0 21z" fill="url(#SVGID_2_)"/></g></g></g></svg>