<svg width="160" height="160" viewBox="0 0 160 160" fill="none" xmlns="http://www.w3.org/2000/svg">
<circle cx="80" cy="80" r="80" fill="#222222"/>
<path d="M53.0713 54.512V80H45.0793V54.512H53.0713ZM70.9009 59.552C73.2289 59.552 75.0409 60.332 76.3369 61.892C77.6569 63.452 78.3169 65.564 78.3169 68.228V80H70.3609V69.236C70.3609 68.276 70.0969 67.52 69.5689 66.968C69.0649 66.392 68.3809 66.104 67.5169 66.104C66.6289 66.104 65.9329 66.392 65.4289 66.968C64.9249 67.52 64.6729 68.276 64.6729 69.236V80H56.6809V59.696H64.6729V62.792C65.2969 61.832 66.1249 61.052 67.1569 60.452C68.2129 59.852 69.4609 59.552 70.9009 59.552ZM93.4824 58.256C93.0504 58.208 92.7504 58.184 92.5824 58.184C91.9824 58.184 91.5264 58.304 91.2144 58.544C90.9024 58.76 90.6864 59.144 90.5664 59.696H93.4824V66.356H90.4944V80H82.5024V66.356H80.3424V59.696H82.5024C82.5504 57.056 83.3784 55.016 84.9864 53.576C86.6184 52.112 88.8984 51.38 91.8264 51.38C92.1624 51.38 92.7144 51.404 93.4824 51.452V58.256ZM105.282 80.252C103.242 80.252 101.406 79.832 99.774 78.992C98.142 78.152 96.858 76.952 95.922 75.392C95.01 73.808 94.554 71.96 94.554 69.848C94.554 67.736 95.01 65.9 95.922 64.34C96.858 62.756 98.142 61.544 99.774 60.704C101.406 59.864 103.242 59.444 105.282 59.444C107.322 59.444 109.158 59.864 110.79 60.704C112.422 61.544 113.694 62.756 114.606 64.34C115.542 65.9 116.01 67.736 116.01 69.848C116.01 71.96 115.542 73.808 114.606 75.392C113.694 76.952 112.422 78.152 110.79 78.992C109.158 79.832 107.322 80.252 105.282 80.252ZM105.282 73.34C106.026 73.34 106.65 73.052 107.154 72.476C107.658 71.876 107.91 71 107.91 69.848C107.91 68.696 107.658 67.832 107.154 67.256C106.65 66.656 106.026 66.356 105.282 66.356C104.538 66.356 103.914 66.656 103.41 67.256C102.906 67.832 102.654 68.696 102.654 69.848C102.654 71 102.894 71.876 103.374 72.476C103.878 73.052 104.514 73.34 105.282 73.34ZM24.3554 95.22C24.3554 92.7 24.8594 90.456 25.8674 88.488C26.8994 86.52 28.3634 84.996 30.2594 83.916C32.1554 82.812 34.3874 82.26 36.9554 82.26C39.1634 82.26 41.1314 82.68 42.8594 83.52C44.6114 84.336 46.0274 85.5 47.1074 87.012C48.2114 88.524 48.9434 90.288 49.3034 92.304H40.8794C40.4954 91.464 39.9434 90.816 39.2234 90.36C38.5274 89.88 37.7234 89.64 36.8114 89.64C35.4674 89.64 34.3994 90.144 33.6074 91.152C32.8394 92.16 32.4554 93.516 32.4554 95.22C32.4554 96.924 32.8394 98.28 33.6074 99.288C34.3994 100.296 35.4674 100.8 36.8114 100.8C37.7234 100.8 38.5274 100.572 39.2234 100.116C39.9434 99.636 40.4954 98.976 40.8794 98.136H49.3034C48.9434 100.152 48.2114 101.916 47.1074 103.428C46.0274 104.94 44.6114 106.116 42.8594 106.956C41.1314 107.772 39.1634 108.18 36.9554 108.18C34.3874 108.18 32.1554 107.64 30.2594 106.56C28.3634 105.456 26.8994 103.92 25.8674 101.952C24.8594 99.984 24.3554 97.74 24.3554 95.22ZM61.8289 108.252C59.7889 108.252 57.9529 107.832 56.3209 106.992C54.6889 106.152 53.4049 104.952 52.4689 103.392C51.5569 101.808 51.1009 99.96 51.1009 97.848C51.1009 95.736 51.5569 93.9 52.4689 92.34C53.4049 90.756 54.6889 89.544 56.3209 88.704C57.9529 87.864 59.7889 87.444 61.8289 87.444C63.8689 87.444 65.7049 87.864 67.3369 88.704C68.9689 89.544 70.2409 90.756 71.1529 92.34C72.0889 93.9 72.5569 95.736 72.5569 97.848C72.5569 99.96 72.0889 101.808 71.1529 103.392C70.2409 104.952 68.9689 106.152 67.3369 106.992C65.7049 107.832 63.8689 108.252 61.8289 108.252ZM61.8289 101.34C62.5729 101.34 63.1969 101.052 63.7009 100.476C64.2049 99.876 64.4569 99 64.4569 97.848C64.4569 96.696 64.2049 95.832 63.7009 95.256C63.1969 94.656 62.5729 94.356 61.8289 94.356C61.0849 94.356 60.4609 94.656 59.9569 95.256C59.4529 95.832 59.2009 96.696 59.2009 97.848C59.2009 99 59.4409 99.876 59.9209 100.476C60.4249 101.052 61.0609 101.34 61.8289 101.34ZM73.9876 97.848C73.9876 95.712 74.3476 93.864 75.0676 92.304C75.8116 90.72 76.8196 89.52 78.0916 88.704C79.3636 87.864 80.7916 87.444 82.3756 87.444C83.6956 87.444 84.8236 87.72 85.7596 88.272C86.7196 88.8 87.4516 89.532 87.9556 90.468V81.36H95.9476V108H87.9556V105.228C87.4516 106.164 86.7196 106.908 85.7596 107.46C84.8236 107.988 83.6956 108.252 82.3756 108.252C80.7916 108.252 79.3636 107.844 78.0916 107.028C76.8196 106.188 75.8116 104.988 75.0676 103.428C74.3476 101.844 73.9876 99.984 73.9876 97.848ZM87.9916 97.848C87.9916 96.768 87.7156 95.928 87.1636 95.328C86.6116 94.728 85.9036 94.428 85.0396 94.428C84.1756 94.428 83.4676 94.728 82.9156 95.328C82.3636 95.928 82.0876 96.768 82.0876 97.848C82.0876 98.928 82.3636 99.768 82.9156 100.368C83.4676 100.968 84.1756 101.268 85.0396 101.268C85.9036 101.268 86.6116 100.968 87.1636 100.368C87.7156 99.768 87.9916 98.928 87.9916 97.848ZM119.192 97.668C119.192 98.22 119.156 98.748 119.084 99.252H106.232C106.352 101.004 107.084 101.88 108.428 101.88C109.292 101.88 109.916 101.484 110.3 100.692H118.76C118.472 102.132 117.86 103.428 116.924 104.58C116.012 105.708 114.848 106.608 113.432 107.28C112.04 107.928 110.504 108.252 108.824 108.252C106.808 108.252 105.008 107.832 103.424 106.992C101.864 106.152 100.64 104.952 99.7523 103.392C98.8883 101.808 98.4563 99.96 98.4563 97.848C98.4563 95.736 98.8883 93.9 99.7523 92.34C100.64 90.756 101.864 89.544 103.424 88.704C105.008 87.864 106.808 87.444 108.824 87.444C110.84 87.444 112.628 87.864 114.188 88.704C115.772 89.52 116.996 90.696 117.86 92.232C118.748 93.768 119.192 95.58 119.192 97.668ZM111.092 95.76C111.092 95.088 110.876 94.584 110.444 94.248C110.012 93.888 109.472 93.708 108.824 93.708C107.408 93.708 106.58 94.392 106.34 95.76H111.092ZM129.712 91.44C130.528 90.264 131.524 89.328 132.7 88.632C133.876 87.912 135.1 87.552 136.372 87.552V96.084H134.104C132.592 96.084 131.476 96.348 130.756 96.876C130.06 97.404 129.712 98.34 129.712 99.684V108H121.72V87.696H129.712V91.44Z" fill="#E7E61A"/>
</svg>
