<svg width="152" height="25" viewBox="0 0 152 25" fill="none" xmlns="http://www.w3.org/2000/svg">
<path d="M5.99 2.94V24H0.86V2.94H5.99ZM19.9077 7.08C21.8677 7.08 23.4277 7.72 24.5877 9C25.7677 10.26 26.3577 12 26.3577 14.22V24H21.2577V14.91C21.2577 13.79 20.9677 12.92 20.3877 12.3C19.8077 11.68 19.0277 11.37 18.0477 11.37C17.0677 11.37 16.2877 11.68 15.7077 12.3C15.1277 12.92 14.8377 13.79 14.8377 14.91V24H9.70766V7.26H14.8377V9.48C15.3577 8.74 16.0577 8.16 16.9377 7.74C17.8177 7.3 18.8077 7.08 19.9077 7.08ZM38.3225 11.52H35.5625V24H30.4325V11.52H28.5725V7.26H30.4325V6.78C30.4325 4.72 31.0225 3.16 32.2025 2.1C33.3825 1.02 35.1125 0.479999 37.3925 0.479999C37.7725 0.479999 38.0525 0.489999 38.2325 0.509998V4.86C37.2525 4.8 36.5625 4.94 36.1625 5.28C35.7625 5.62 35.5625 6.23 35.5625 7.11V7.26H38.3225V11.52ZM48.353 24.24C46.713 24.24 45.233 23.89 43.913 23.19C42.613 22.49 41.583 21.49 40.823 20.19C40.083 18.89 39.713 17.37 39.713 15.63C39.713 13.91 40.093 12.4 40.853 11.1C41.613 9.78 42.653 8.77 43.973 8.07C45.293 7.37 46.773 7.02 48.413 7.02C50.053 7.02 51.533 7.37 52.853 8.07C54.173 8.77 55.213 9.78 55.973 11.1C56.733 12.4 57.113 13.91 57.113 15.63C57.113 17.35 56.723 18.87 55.943 20.19C55.183 21.49 54.133 22.49 52.793 23.19C51.473 23.89 49.993 24.24 48.353 24.24ZM48.353 19.8C49.333 19.8 50.163 19.44 50.843 18.72C51.543 18 51.893 16.97 51.893 15.63C51.893 14.29 51.553 13.26 50.873 12.54C50.213 11.82 49.393 11.46 48.413 11.46C47.413 11.46 46.583 11.82 45.923 12.54C45.263 13.24 44.933 14.27 44.933 15.63C44.933 16.97 45.253 18 45.893 18.72C46.553 19.44 47.373 19.8 48.353 19.8ZM58.9646 13.44C58.9646 11.36 59.4146 9.51 60.3146 7.89C61.2146 6.25 62.4646 4.98 64.0646 4.08C65.6846 3.16 67.5146 2.7 69.5546 2.7C72.0546 2.7 74.1946 3.36 75.9746 4.68C77.7546 6 78.9446 7.8 79.5446 10.08H73.9046C73.4846 9.2 72.8846 8.53 72.1046 8.07C71.3446 7.61 70.4746 7.38 69.4946 7.38C67.9146 7.38 66.6346 7.93 65.6546 9.03C64.6746 10.13 64.1846 11.6 64.1846 13.44C64.1846 15.28 64.6746 16.75 65.6546 17.85C66.6346 18.95 67.9146 19.5 69.4946 19.5C70.4746 19.5 71.3446 19.27 72.1046 18.81C72.8846 18.35 73.4846 17.68 73.9046 16.8H79.5446C78.9446 19.08 77.7546 20.88 75.9746 22.2C74.1946 23.5 72.0546 24.15 69.5546 24.15C67.5146 24.15 65.6846 23.7 64.0646 22.8C62.4646 21.88 61.2146 20.61 60.3146 18.99C59.4146 17.37 58.9646 15.52 58.9646 13.44ZM90.3062 24.24C88.6662 24.24 87.1862 23.89 85.8662 23.19C84.5662 22.49 83.5362 21.49 82.7762 20.19C82.0362 18.89 81.6662 17.37 81.6662 15.63C81.6662 13.91 82.0462 12.4 82.8062 11.1C83.5662 9.78 84.6062 8.77 85.9262 8.07C87.2462 7.37 88.7262 7.02 90.3662 7.02C92.0062 7.02 93.4862 7.37 94.8062 8.07C96.1262 8.77 97.1662 9.78 97.9262 11.1C98.6862 12.4 99.0662 13.91 99.0662 15.63C99.0662 17.35 98.6762 18.87 97.8962 20.19C97.1362 21.49 96.0862 22.49 94.7462 23.19C93.4262 23.89 91.9462 24.24 90.3062 24.24ZM90.3062 19.8C91.2862 19.8 92.1162 19.44 92.7962 18.72C93.4962 18 93.8462 16.97 93.8462 15.63C93.8462 14.29 93.5062 13.26 92.8262 12.54C92.1662 11.82 91.3462 11.46 90.3662 11.46C89.3662 11.46 88.5362 11.82 87.8762 12.54C87.2162 13.24 86.8862 14.27 86.8862 15.63C86.8862 16.97 87.2062 18 87.8462 18.72C88.5062 19.44 89.3262 19.8 90.3062 19.8ZM100.768 15.6C100.768 13.88 101.088 12.37 101.728 11.07C102.388 9.77 103.278 8.77 104.398 8.07C105.518 7.37 106.768 7.02 108.148 7.02C109.248 7.02 110.248 7.25 111.148 7.71C112.068 8.17 112.788 8.79 113.308 9.57V1.8H118.438V24H113.308V21.6C112.828 22.4 112.138 23.04 111.238 23.52C110.358 24 109.328 24.24 108.148 24.24C106.768 24.24 105.518 23.89 104.398 23.19C103.278 22.47 102.388 21.46 101.728 20.16C101.088 18.84 100.768 17.32 100.768 15.6ZM113.308 15.63C113.308 14.35 112.948 13.34 112.228 12.6C111.528 11.86 110.668 11.49 109.648 11.49C108.628 11.49 107.758 11.86 107.038 12.6C106.338 13.32 105.988 14.32 105.988 15.6C105.988 16.88 106.338 17.9 107.038 18.66C107.758 19.4 108.628 19.77 109.648 19.77C110.668 19.77 111.528 19.4 112.228 18.66C112.948 17.92 113.308 16.91 113.308 15.63ZM137.929 15.36C137.929 15.84 137.899 16.34 137.839 16.86H126.229C126.309 17.9 126.639 18.7 127.219 19.26C127.819 19.8 128.549 20.07 129.409 20.07C130.689 20.07 131.579 19.53 132.079 18.45H137.539C137.259 19.55 136.749 20.54 136.009 21.42C135.289 22.3 134.379 22.99 133.279 23.49C132.179 23.99 130.949 24.24 129.589 24.24C127.949 24.24 126.489 23.89 125.209 23.19C123.929 22.49 122.929 21.49 122.209 20.19C121.489 18.89 121.129 17.37 121.129 15.63C121.129 13.89 121.479 12.37 122.179 11.07C122.899 9.77 123.899 8.77 125.179 8.07C126.459 7.37 127.929 7.02 129.589 7.02C131.209 7.02 132.649 7.36 133.909 8.04C135.169 8.72 136.149 9.69 136.849 10.95C137.569 12.21 137.929 13.68 137.929 15.36ZM132.679 14.01C132.679 13.13 132.379 12.43 131.779 11.91C131.179 11.39 130.429 11.13 129.529 11.13C128.669 11.13 127.939 11.38 127.339 11.88C126.759 12.38 126.399 13.09 126.259 14.01H132.679ZM145.765 10.05C146.365 9.13 147.115 8.41 148.015 7.89C148.915 7.35 149.915 7.08 151.015 7.08V12.51H149.605C148.325 12.51 147.365 12.79 146.725 13.35C146.085 13.89 145.765 14.85 145.765 16.23V24H140.635V7.26H145.765V10.05Z" fill="#E7E61A"/>
</svg>
