<svg width="615" height="146" viewBox="0 0 615 146" fill="none" xmlns="http://www.w3.org/2000/svg">
<path d="M33.616 126.544C33.616 128.315 33.392 129.925 32.944 131.376C32.5173 132.805 31.856 134.043 30.96 135.088C30.0853 136.133 28.9547 136.933 27.568 137.488C26.2027 138.043 24.592 138.32 22.736 138.32C20.88 138.32 19.2587 138.043 17.872 137.488C16.5067 136.912 15.376 136.112 14.48 135.088C13.6053 134.043 12.944 132.795 12.496 131.344C12.0693 129.893 11.856 128.283 11.856 126.512C11.856 124.144 12.24 122.085 13.008 120.336C13.7973 118.587 14.992 117.232 16.592 116.272C18.2133 115.291 20.272 114.8 22.768 114.8C25.2427 114.8 27.28 115.291 28.88 116.272C30.48 117.232 31.664 118.597 32.432 120.368C33.2213 122.117 33.616 124.176 33.616 126.544ZM16.944 126.544C16.944 128.144 17.1467 129.52 17.552 130.672C17.9573 131.824 18.5867 132.709 19.44 133.328C20.2933 133.947 21.392 134.256 22.736 134.256C24.1227 134.256 25.232 133.947 26.064 133.328C26.9173 132.709 27.536 131.824 27.92 130.672C28.3253 129.52 28.528 128.144 28.528 126.544C28.528 124.133 28.08 122.245 27.184 120.88C26.288 119.515 24.816 118.832 22.768 118.832C21.4027 118.832 20.2933 119.141 19.44 119.76C18.5867 120.379 17.9573 121.264 17.552 122.416C17.1467 123.568 16.944 124.944 16.944 126.544ZM62.6403 125.104C62.6403 126.043 62.3416 126.843 61.7443 127.504C61.1683 128.165 60.3043 128.592 59.1523 128.784V128.912C60.3683 129.061 61.3389 129.477 62.0643 130.16C62.8109 130.843 63.1843 131.717 63.1843 132.784C63.1843 133.531 63.0349 134.224 62.7362 134.864C62.4589 135.504 62.0109 136.059 61.3923 136.528C60.7736 136.997 59.9736 137.36 58.9923 137.616C58.0323 137.872 56.8589 138 55.4723 138H47.1523V120.528H55.4723C56.8376 120.528 58.0536 120.677 59.1203 120.976C60.2083 121.253 61.0616 121.723 61.6803 122.384C62.3203 123.045 62.6403 123.952 62.6403 125.104ZM58.2563 132.528C58.2563 131.845 57.9896 131.355 57.4563 131.056C56.9229 130.736 56.1229 130.576 55.0563 130.576H51.9203V134.704H55.1523C56.0483 134.704 56.7843 134.544 57.3603 134.224C57.9576 133.883 58.2563 133.317 58.2563 132.528ZM57.8083 125.488C57.8083 124.933 57.5949 124.528 57.1683 124.272C56.7416 124.016 56.1123 123.888 55.2803 123.888H51.9203V127.344H54.7363C55.7389 127.344 56.4963 127.205 57.0083 126.928C57.5416 126.629 57.8083 126.149 57.8083 125.488ZM74.4773 120.208C76.0986 120.208 77.4853 120.517 78.6373 121.136C79.8106 121.755 80.7173 122.651 81.3573 123.824C81.9973 124.997 82.3173 126.437 82.3173 128.144V130.448H71.0533C71.0959 131.792 71.4906 132.848 72.2373 133.616C73.0053 134.384 74.0613 134.768 75.4053 134.768C76.5359 134.768 77.5599 134.661 78.4773 134.448C79.3946 134.213 80.3439 133.861 81.3253 133.392V137.072C80.4719 137.499 79.5653 137.808 78.6053 138C77.6666 138.213 76.5253 138.32 75.1813 138.32C73.4319 138.32 71.8853 138 70.5413 137.36C69.1973 136.699 68.1413 135.707 67.3733 134.384C66.6053 133.061 66.2213 131.397 66.2213 129.392C66.2213 127.344 66.5626 125.648 67.2453 124.304C67.9493 122.939 68.9199 121.915 70.1573 121.232C71.3946 120.549 72.8346 120.208 74.4773 120.208ZM74.5093 123.6C73.5919 123.6 72.8239 123.899 72.2053 124.496C71.6079 125.093 71.2559 126.021 71.1493 127.28H77.8373C77.8373 126.576 77.7093 125.947 77.4533 125.392C77.2186 124.837 76.8559 124.4 76.3653 124.08C75.8746 123.76 75.2559 123.6 74.5093 123.6ZM85.1275 127.536C85.1275 124.955 85.4475 122.768 86.0875 120.976C86.7275 119.163 87.7408 117.723 89.1275 116.656C90.5142 115.568 92.3275 114.832 94.5675 114.448C95.6982 114.256 96.8395 114.096 97.9915 113.968C99.1648 113.819 100.37 113.669 101.608 113.52L102.152 117.68C101.618 117.744 101.032 117.819 100.392 117.904C99.7515 117.968 99.1008 118.043 98.4395 118.128C97.7995 118.192 97.1808 118.267 96.5835 118.352C95.9862 118.437 95.4422 118.512 94.9515 118.576C94.1622 118.704 93.4688 118.885 92.8715 119.12C92.2742 119.333 91.7728 119.643 91.3675 120.048C90.9622 120.453 90.6422 121.008 90.4075 121.712C90.1942 122.395 90.0555 123.28 89.9915 124.368H90.2155C90.4715 123.963 90.8235 123.557 91.2715 123.152C91.7408 122.747 92.3168 122.405 92.9995 122.128C93.6822 121.851 94.4608 121.712 95.3355 121.712C96.7222 121.712 97.9275 122 98.9515 122.576C99.9755 123.152 100.765 124.005 101.319 125.136C101.874 126.267 102.152 127.675 102.152 129.36C102.152 131.344 101.789 132.997 101.064 134.32C100.338 135.643 99.3355 136.645 98.0555 137.328C96.7755 137.989 95.2928 138.32 93.6075 138.32C92.3275 138.32 91.1648 138.085 90.1195 137.616C89.0742 137.147 88.1782 136.453 87.4315 135.536C86.6848 134.619 86.1088 133.488 85.7035 132.144C85.3195 130.8 85.1275 129.264 85.1275 127.536ZM93.8955 134.448C94.5782 134.448 95.1648 134.299 95.6555 134C96.1675 133.701 96.5622 133.211 96.8395 132.528C97.1382 131.845 97.2875 130.928 97.2875 129.776C97.2875 128.389 97.0528 127.291 96.5835 126.48C96.1355 125.648 95.3462 125.232 94.2155 125.232C93.5328 125.232 92.8928 125.403 92.2955 125.744C91.7195 126.064 91.2288 126.437 90.8235 126.864C90.4182 127.269 90.1408 127.621 89.9915 127.92C89.9915 128.752 90.0555 129.563 90.1835 130.352C90.3115 131.12 90.5248 131.813 90.8235 132.432C91.1222 133.051 91.5168 133.541 92.0075 133.904C92.5195 134.267 93.1488 134.448 93.8955 134.448ZM114.202 126.832V130.56H104.778V126.832H114.202ZM127.599 120.208C129.562 120.208 131.151 120.976 132.367 122.512C133.583 124.027 134.191 126.267 134.191 129.232C134.191 131.216 133.903 132.891 133.327 134.256C132.751 135.6 131.962 136.613 130.959 137.296C129.956 137.979 128.794 138.32 127.471 138.32C126.639 138.32 125.914 138.213 125.295 138C124.698 137.787 124.186 137.509 123.759 137.168C123.332 136.827 122.959 136.464 122.639 136.08H122.383C122.468 136.485 122.532 136.912 122.575 137.36C122.618 137.787 122.639 138.213 122.639 138.64V145.68H117.871V120.528H121.743L122.415 122.8H122.639C122.959 122.331 123.343 121.904 123.791 121.52C124.239 121.115 124.772 120.795 125.391 120.56C126.031 120.325 126.767 120.208 127.599 120.208ZM126.063 124.016C125.231 124.016 124.57 124.187 124.079 124.528C123.588 124.869 123.226 125.392 122.991 126.096C122.778 126.779 122.66 127.643 122.639 128.688V129.2C122.639 130.331 122.746 131.291 122.959 132.08C123.172 132.848 123.535 133.435 124.047 133.84C124.559 134.245 125.252 134.448 126.127 134.448C126.852 134.448 127.45 134.245 127.919 133.84C128.388 133.435 128.74 132.837 128.975 132.048C129.21 131.259 129.327 130.299 129.327 129.168C129.327 127.461 129.06 126.181 128.527 125.328C128.015 124.453 127.194 124.016 126.063 124.016ZM145.289 120.176C147.636 120.176 149.428 120.688 150.665 121.712C151.924 122.715 152.553 124.261 152.553 126.352V138H149.225L148.297 135.632H148.169C147.678 136.251 147.166 136.763 146.633 137.168C146.121 137.573 145.524 137.861 144.841 138.032C144.18 138.224 143.358 138.32 142.377 138.32C141.353 138.32 140.425 138.128 139.593 137.744C138.782 137.339 138.142 136.731 137.673 135.92C137.204 135.088 136.969 134.043 136.969 132.784C136.969 130.928 137.62 129.563 138.921 128.688C140.222 127.792 142.174 127.301 144.777 127.216L147.817 127.12V126.352C147.817 125.435 147.572 124.763 147.081 124.336C146.612 123.909 145.95 123.696 145.097 123.696C144.244 123.696 143.412 123.824 142.601 124.08C141.79 124.315 140.98 124.613 140.169 124.976L138.601 121.744C139.54 121.253 140.574 120.869 141.705 120.592C142.857 120.315 144.052 120.176 145.289 120.176ZM145.961 129.968C144.425 130.011 143.358 130.288 142.761 130.8C142.164 131.312 141.865 131.984 141.865 132.816C141.865 133.541 142.078 134.064 142.505 134.384C142.932 134.683 143.486 134.832 144.169 134.832C145.193 134.832 146.057 134.533 146.761 133.936C147.465 133.317 147.817 132.453 147.817 131.344V129.904L145.961 129.968ZM163.802 120.208C165.06 120.208 166.234 120.379 167.322 120.72C168.431 121.04 169.316 121.541 169.978 122.224C170.66 122.907 171.002 123.781 171.002 124.848C171.002 125.893 170.682 126.725 170.042 127.344C169.423 127.963 168.58 128.411 167.514 128.688V128.848C168.26 129.019 168.932 129.264 169.53 129.584C170.127 129.883 170.596 130.299 170.938 130.832C171.3 131.344 171.482 132.037 171.482 132.912C171.482 133.872 171.172 134.768 170.554 135.6C169.956 136.411 169.018 137.072 167.738 137.584C166.479 138.075 164.858 138.32 162.874 138.32C161.935 138.32 161.05 138.277 160.218 138.192C159.386 138.107 158.628 137.989 157.946 137.84C157.263 137.669 156.666 137.467 156.154 137.232V133.296C156.879 133.637 157.764 133.947 158.81 134.224C159.876 134.501 161.007 134.64 162.202 134.64C163.076 134.64 163.855 134.576 164.538 134.448C165.242 134.32 165.796 134.107 166.202 133.808C166.628 133.509 166.842 133.115 166.842 132.624C166.842 132.155 166.66 131.771 166.298 131.472C165.935 131.152 165.391 130.917 164.666 130.768C163.94 130.619 163.012 130.544 161.882 130.544H160.026V127.248H161.786C163.364 127.248 164.58 127.12 165.434 126.864C166.308 126.608 166.746 126.128 166.746 125.424C166.746 124.869 166.468 124.453 165.914 124.176C165.359 123.877 164.452 123.728 163.194 123.728C162.362 123.728 161.455 123.824 160.474 124.016C159.492 124.208 158.564 124.485 157.69 124.848L156.282 121.52C157.284 121.136 158.383 120.827 159.578 120.592C160.772 120.336 162.18 120.208 163.802 120.208ZM184.912 120.208C186.874 120.208 188.464 120.976 189.68 122.512C190.896 124.027 191.503 126.267 191.503 129.232C191.503 131.216 191.216 132.891 190.64 134.256C190.064 135.6 189.274 136.613 188.272 137.296C187.269 137.979 186.106 138.32 184.784 138.32C183.952 138.32 183.226 138.213 182.608 138C182.01 137.787 181.498 137.509 181.072 137.168C180.645 136.827 180.272 136.464 179.952 136.08H179.696C179.781 136.485 179.845 136.912 179.888 137.36C179.93 137.787 179.952 138.213 179.952 138.64V145.68H175.184V120.528H179.056L179.728 122.8H179.952C180.272 122.331 180.656 121.904 181.104 121.52C181.552 121.115 182.085 120.795 182.704 120.56C183.344 120.325 184.08 120.208 184.912 120.208ZM183.376 124.016C182.544 124.016 181.882 124.187 181.392 124.528C180.901 124.869 180.538 125.392 180.304 126.096C180.09 126.779 179.973 127.643 179.952 128.688V129.2C179.952 130.331 180.058 131.291 180.272 132.08C180.485 132.848 180.848 133.435 181.36 133.84C181.872 134.245 182.565 134.448 183.44 134.448C184.165 134.448 184.762 134.245 185.232 133.84C185.701 133.435 186.053 132.837 186.288 132.048C186.522 131.259 186.64 130.299 186.64 129.168C186.64 127.461 186.373 126.181 185.84 125.328C185.328 124.453 184.506 124.016 183.376 124.016ZM202.602 120.176C204.948 120.176 206.74 120.688 207.978 121.712C209.236 122.715 209.866 124.261 209.866 126.352V138H206.538L205.61 135.632H205.482C204.991 136.251 204.479 136.763 203.946 137.168C203.434 137.573 202.836 137.861 202.154 138.032C201.492 138.224 200.671 138.32 199.69 138.32C198.666 138.32 197.738 138.128 196.906 137.744C196.095 137.339 195.455 136.731 194.986 135.92C194.516 135.088 194.282 134.043 194.282 132.784C194.282 130.928 194.932 129.563 196.234 128.688C197.535 127.792 199.487 127.301 202.09 127.216L205.13 127.12V126.352C205.13 125.435 204.884 124.763 204.394 124.336C203.924 123.909 203.263 123.696 202.41 123.696C201.556 123.696 200.724 123.824 199.914 124.08C199.103 124.315 198.292 124.613 197.482 124.976L195.914 121.744C196.852 121.253 197.887 120.869 199.018 120.592C200.17 120.315 201.364 120.176 202.602 120.176ZM203.274 129.968C201.738 130.011 200.671 130.288 200.074 130.8C199.476 131.312 199.178 131.984 199.178 132.816C199.178 133.541 199.391 134.064 199.818 134.384C200.244 134.683 200.799 134.832 201.482 134.832C202.506 134.832 203.37 134.533 204.074 133.936C204.778 133.317 205.13 132.453 205.13 131.344V129.904L203.274 129.968ZM213.69 127.536C213.69 124.955 214.01 122.768 214.65 120.976C215.29 119.163 216.303 117.723 217.69 116.656C219.077 115.568 220.89 114.832 223.13 114.448C224.261 114.256 225.402 114.096 226.554 113.968C227.727 113.819 228.933 113.669 230.17 113.52L230.714 117.68C230.181 117.744 229.594 117.819 228.954 117.904C228.314 117.968 227.663 118.043 227.002 118.128C226.362 118.192 225.743 118.267 225.146 118.352C224.549 118.437 224.005 118.512 223.514 118.576C222.725 118.704 222.031 118.885 221.434 119.12C220.837 119.333 220.335 119.643 219.93 120.048C219.525 120.453 219.205 121.008 218.97 121.712C218.757 122.395 218.618 123.28 218.554 124.368H218.778C219.034 123.963 219.386 123.557 219.834 123.152C220.303 122.747 220.879 122.405 221.562 122.128C222.245 121.851 223.023 121.712 223.898 121.712C225.285 121.712 226.49 122 227.514 122.576C228.538 123.152 229.327 124.005 229.882 125.136C230.437 126.267 230.714 127.675 230.714 129.36C230.714 131.344 230.351 132.997 229.626 134.32C228.901 135.643 227.898 136.645 226.618 137.328C225.338 137.989 223.855 138.32 222.17 138.32C220.89 138.32 219.727 138.085 218.682 137.616C217.637 137.147 216.741 136.453 215.994 135.536C215.247 134.619 214.671 133.488 214.266 132.144C213.882 130.8 213.69 129.264 213.69 127.536ZM222.458 134.448C223.141 134.448 223.727 134.299 224.218 134C224.73 133.701 225.125 133.211 225.402 132.528C225.701 131.845 225.85 130.928 225.85 129.776C225.85 128.389 225.615 127.291 225.146 126.48C224.698 125.648 223.909 125.232 222.778 125.232C222.095 125.232 221.455 125.403 220.858 125.744C220.282 126.064 219.791 126.437 219.386 126.864C218.981 127.269 218.703 127.621 218.554 127.92C218.554 128.752 218.618 129.563 218.746 130.352C218.874 131.12 219.087 131.813 219.386 132.432C219.685 133.051 220.079 133.541 220.57 133.904C221.082 134.267 221.711 134.448 222.458 134.448ZM250.524 129.232C250.524 130.683 250.322 131.973 249.916 133.104C249.532 134.235 248.967 135.195 248.22 135.984C247.495 136.752 246.61 137.339 245.564 137.744C244.519 138.128 243.335 138.32 242.012 138.32C240.796 138.32 239.666 138.128 238.62 137.744C237.596 137.339 236.711 136.752 235.964 135.984C235.218 135.195 234.631 134.235 234.204 133.104C233.799 131.973 233.596 130.683 233.596 129.232C233.596 127.291 233.938 125.659 234.62 124.336C235.303 122.992 236.284 121.968 237.564 121.264C238.844 120.56 240.359 120.208 242.108 120.208C243.751 120.208 245.202 120.56 246.46 121.264C247.719 121.968 248.711 122.992 249.436 124.336C250.162 125.659 250.524 127.291 250.524 129.232ZM238.46 129.232C238.46 130.384 238.578 131.355 238.812 132.144C239.068 132.912 239.463 133.499 239.996 133.904C240.53 134.288 241.223 134.48 242.076 134.48C242.93 134.48 243.612 134.288 244.124 133.904C244.658 133.499 245.042 132.912 245.276 132.144C245.532 131.355 245.66 130.384 245.66 129.232C245.66 128.08 245.532 127.12 245.276 126.352C245.042 125.584 244.658 125.008 244.124 124.624C243.591 124.24 242.898 124.048 242.044 124.048C240.786 124.048 239.868 124.485 239.292 125.36C238.738 126.213 238.46 127.504 238.46 129.232ZM268.616 124.112H262.888V138H258.12V124.112H252.392V120.528H268.616V124.112ZM283.296 120.528H288.544L281.632 128.912L289.152 138H283.744L276.608 129.136V138H271.84V120.528H276.608V129.008L283.296 120.528ZM298.227 120.208C299.849 120.208 301.235 120.517 302.387 121.136C303.561 121.755 304.467 122.651 305.107 123.824C305.747 124.997 306.067 126.437 306.067 128.144V130.448H294.803C294.846 131.792 295.241 132.848 295.987 133.616C296.755 134.384 297.811 134.768 299.155 134.768C300.286 134.768 301.31 134.661 302.227 134.448C303.145 134.213 304.094 133.861 305.075 133.392V137.072C304.222 137.499 303.315 137.808 302.355 138C301.417 138.213 300.275 138.32 298.931 138.32C297.182 138.32 295.635 138 294.291 137.36C292.947 136.699 291.891 135.707 291.123 134.384C290.355 133.061 289.971 131.397 289.971 129.392C289.971 127.344 290.313 125.648 290.995 124.304C291.699 122.939 292.67 121.915 293.907 121.232C295.145 120.549 296.585 120.208 298.227 120.208ZM298.259 123.6C297.342 123.6 296.574 123.899 295.955 124.496C295.358 125.093 295.006 126.021 294.899 127.28H301.587C301.587 126.576 301.459 125.947 301.203 125.392C300.969 124.837 300.606 124.4 300.115 124.08C299.625 123.76 299.006 123.6 298.259 123.6ZM334.993 120.528V138H330.225V124.112H323.889V138H319.121V120.528H334.993ZM349.724 120.208C351.687 120.208 353.276 120.976 354.492 122.512C355.708 124.027 356.316 126.267 356.316 129.232C356.316 131.216 356.028 132.891 355.452 134.256C354.876 135.6 354.087 136.613 353.084 137.296C352.081 137.979 350.919 138.32 349.596 138.32C348.764 138.32 348.039 138.213 347.42 138C346.823 137.787 346.311 137.509 345.884 137.168C345.457 136.827 345.084 136.464 344.764 136.08H344.508C344.593 136.485 344.657 136.912 344.7 137.36C344.743 137.787 344.764 138.213 344.764 138.64V145.68H339.996V120.528H343.868L344.54 122.8H344.764C345.084 122.331 345.468 121.904 345.916 121.52C346.364 121.115 346.897 120.795 347.516 120.56C348.156 120.325 348.892 120.208 349.724 120.208ZM348.188 124.016C347.356 124.016 346.695 124.187 346.204 124.528C345.713 124.869 345.351 125.392 345.116 126.096C344.903 126.779 344.785 127.643 344.764 128.688V129.2C344.764 130.331 344.871 131.291 345.084 132.08C345.297 132.848 345.66 133.435 346.172 133.84C346.684 134.245 347.377 134.448 348.252 134.448C348.977 134.448 349.575 134.245 350.044 133.84C350.513 133.435 350.865 132.837 351.1 132.048C351.335 131.259 351.452 130.299 351.452 129.168C351.452 127.461 351.185 126.181 350.652 125.328C350.14 124.453 349.319 124.016 348.188 124.016ZM376.118 129.232C376.118 130.683 375.915 131.973 375.51 133.104C375.126 134.235 374.561 135.195 373.814 135.984C373.089 136.752 372.203 137.339 371.158 137.744C370.113 138.128 368.929 138.32 367.606 138.32C366.39 138.32 365.259 138.128 364.214 137.744C363.19 137.339 362.305 136.752 361.558 135.984C360.811 135.195 360.225 134.235 359.798 133.104C359.393 131.973 359.19 130.683 359.19 129.232C359.19 127.291 359.531 125.659 360.214 124.336C360.897 122.992 361.878 121.968 363.158 121.264C364.438 120.56 365.953 120.208 367.702 120.208C369.345 120.208 370.795 120.56 372.054 121.264C373.313 121.968 374.305 122.992 375.03 124.336C375.755 125.659 376.118 127.291 376.118 129.232ZM364.054 129.232C364.054 130.384 364.171 131.355 364.406 132.144C364.662 132.912 365.057 133.499 365.59 133.904C366.123 134.288 366.817 134.48 367.67 134.48C368.523 134.48 369.206 134.288 369.718 133.904C370.251 133.499 370.635 132.912 370.87 132.144C371.126 131.355 371.254 130.384 371.254 129.232C371.254 128.08 371.126 127.12 370.87 126.352C370.635 125.584 370.251 125.008 369.718 124.624C369.185 124.24 368.491 124.048 367.638 124.048C366.379 124.048 365.462 124.485 364.886 125.36C364.331 126.213 364.054 127.504 364.054 129.232ZM387.163 138.32C385.435 138.32 383.963 138.011 382.747 137.392C381.531 136.752 380.603 135.771 379.963 134.448C379.323 133.125 379.003 131.429 379.003 129.36C379.003 127.227 379.365 125.488 380.091 124.144C380.816 122.8 381.819 121.808 383.099 121.168C384.4 120.528 385.893 120.208 387.579 120.208C388.773 120.208 389.808 120.325 390.683 120.56C391.579 120.795 392.357 121.072 393.019 121.392L391.611 125.072C390.864 124.773 390.16 124.528 389.499 124.336C388.859 124.144 388.219 124.048 387.579 124.048C386.747 124.048 386.053 124.251 385.499 124.656C384.944 125.04 384.528 125.627 384.251 126.416C383.995 127.184 383.867 128.155 383.867 129.328C383.867 130.48 384.005 131.44 384.283 132.208C384.581 132.955 385.008 133.52 385.562 133.904C386.117 134.267 386.789 134.448 387.579 134.448C388.581 134.448 389.467 134.32 390.235 134.064C391.003 133.787 391.749 133.413 392.475 132.944V137.008C391.749 137.477 390.981 137.808 390.171 138C389.381 138.213 388.379 138.32 387.163 138.32ZM410.96 124.112H405.232V138H400.464V124.112H394.736V120.528H410.96V124.112ZM414.184 138V120.528H418.952V127.28H421.256C423.048 127.28 424.52 127.472 425.672 127.856C426.824 128.219 427.677 128.784 428.232 129.552C428.808 130.32 429.096 131.28 429.096 132.432C429.096 133.563 428.829 134.544 428.296 135.376C427.784 136.208 426.962 136.859 425.832 137.328C424.722 137.776 423.25 138 421.416 138H414.184ZM421.16 134.704C422.098 134.704 422.856 134.533 423.432 134.192C424.029 133.851 424.328 133.285 424.328 132.496C424.328 131.813 424.05 131.323 423.496 131.024C422.962 130.725 422.162 130.576 421.095 130.576H418.952V134.704H421.16ZM431.624 138V120.528H436.392V138H431.624ZM463.387 120.528V138H458.939V129.424C458.939 128.571 458.95 127.739 458.971 126.928C459.014 126.117 459.067 125.371 459.131 124.688H459.035L454.203 138H450.619L445.723 124.656H445.595C445.68 125.36 445.734 126.117 445.755 126.928C445.798 127.717 445.819 128.592 445.819 129.552V138H441.371V120.528H448.123L452.475 132.368L456.891 120.528H463.387ZM480.215 138H475.062L479.766 131.088C479.169 130.832 478.604 130.491 478.071 130.064C477.559 129.616 477.143 129.051 476.823 128.368C476.503 127.685 476.343 126.875 476.343 125.936C476.343 124.187 477.004 122.853 478.327 121.936C479.649 120.997 481.345 120.528 483.415 120.528H491.543V138H486.775V131.504H484.151L480.215 138ZM481.015 125.968C481.015 126.693 481.303 127.269 481.879 127.696C482.455 128.101 483.201 128.304 484.119 128.304H486.775V123.888H483.51C482.657 123.888 482.028 124.101 481.623 124.528C481.217 124.933 481.015 125.413 481.015 125.968ZM502.895 120.208C504.154 120.208 505.327 120.379 506.415 120.72C507.525 121.04 508.41 121.541 509.071 122.224C509.754 122.907 510.095 123.781 510.095 124.848C510.095 125.893 509.775 126.725 509.135 127.344C508.517 127.963 507.674 128.411 506.607 128.688V128.848C507.354 129.019 508.026 129.264 508.623 129.584C509.221 129.883 509.69 130.299 510.031 130.832C510.394 131.344 510.575 132.037 510.575 132.912C510.575 133.872 510.266 134.768 509.647 135.6C509.05 136.411 508.111 137.072 506.831 137.584C505.573 138.075 503.951 138.32 501.967 138.32C501.029 138.32 500.143 138.277 499.311 138.192C498.479 138.107 497.722 137.989 497.039 137.84C496.357 137.669 495.759 137.467 495.247 137.232V133.296C495.973 133.637 496.858 133.947 497.903 134.224C498.97 134.501 500.101 134.64 501.295 134.64C502.17 134.64 502.949 134.576 503.631 134.448C504.335 134.32 504.89 134.107 505.295 133.808C505.722 133.509 505.935 133.115 505.935 132.624C505.935 132.155 505.754 131.771 505.391 131.472C505.029 131.152 504.485 130.917 503.759 130.768C503.034 130.619 502.106 130.544 500.975 130.544H499.119V127.248H500.879C502.458 127.248 503.674 127.12 504.527 126.864C505.402 126.608 505.839 126.128 505.839 125.424C505.839 124.869 505.562 124.453 505.007 124.176C504.453 123.877 503.546 123.728 502.287 123.728C501.455 123.728 500.549 123.824 499.567 124.016C498.586 124.208 497.658 124.485 496.783 124.848L495.375 121.52C496.378 121.136 497.477 120.827 498.671 120.592C499.866 120.336 501.274 120.208 502.895 120.208ZM514.277 138V120.528H519.045V127.28H521.349C523.141 127.28 524.613 127.472 525.765 127.856C526.917 128.219 527.771 128.784 528.325 129.552C528.901 130.32 529.189 131.28 529.189 132.432C529.189 133.563 528.923 134.544 528.389 135.376C527.877 136.208 527.056 136.859 525.925 137.328C524.816 137.776 523.344 138 521.509 138H514.277ZM521.253 134.704C522.192 134.704 522.949 134.533 523.525 134.192C524.123 133.851 524.421 133.285 524.421 132.496C524.421 131.813 524.144 131.323 523.589 131.024C523.056 130.725 522.256 130.576 521.189 130.576H519.045V134.704H521.253ZM531.717 138V120.528H536.485V138H531.717ZM552.921 120.528H558.169L551.257 128.912L558.777 138H553.369L546.233 129.136V138H541.465V120.528H546.233V129.008L552.921 120.528ZM576.524 129.232C576.524 130.683 576.322 131.973 575.916 133.104C575.532 134.235 574.967 135.195 574.22 135.984C573.495 136.752 572.61 137.339 571.564 137.744C570.519 138.128 569.335 138.32 568.012 138.32C566.796 138.32 565.666 138.128 564.62 137.744C563.596 137.339 562.711 136.752 561.964 135.984C561.218 135.195 560.631 134.235 560.204 133.104C559.799 131.973 559.596 130.683 559.596 129.232C559.596 127.291 559.938 125.659 560.62 124.336C561.303 122.992 562.284 121.968 563.564 121.264C564.844 120.56 566.359 120.208 568.108 120.208C569.751 120.208 571.202 120.56 572.46 121.264C573.719 121.968 574.711 122.992 575.436 124.336C576.162 125.659 576.524 127.291 576.524 129.232ZM564.46 129.232C564.46 130.384 564.578 131.355 564.812 132.144C565.068 132.912 565.463 133.499 565.996 133.904C566.53 134.288 567.223 134.48 568.076 134.48C568.93 134.48 569.612 134.288 570.124 133.904C570.658 133.499 571.042 132.912 571.276 132.144C571.532 131.355 571.66 130.384 571.66 129.232C571.66 128.08 571.532 127.12 571.276 126.352C571.042 125.584 570.658 125.008 570.124 124.624C569.591 124.24 568.898 124.048 568.044 124.048C566.786 124.048 565.868 124.485 565.292 125.36C564.738 126.213 564.46 127.504 564.46 129.232ZM602.481 120.528V138H598.033V129.424C598.033 128.571 598.043 127.739 598.065 126.928C598.107 126.117 598.161 125.371 598.225 124.688H598.129L593.297 138H589.713L584.817 124.656H584.689C584.774 125.36 584.827 126.117 584.849 126.928C584.891 127.717 584.913 128.592 584.913 129.552V138H580.465V120.528H587.217L591.569 132.368L595.985 120.528H602.481Z" fill="white"/>
<path fill-rule="evenodd" clip-rule="evenodd" d="M8.6701 94.864L0 7.29601H51.359L49.6861 24.192H87.0783L86.952 26.8761C91.2445 23.9228 96.0621 22.4 101.293 22.4C108.894 22.4 115.35 25.6894 120.452 31.7008C122.431 33.9941 124.012 36.5232 125.215 39.2635L126.606 24.192H132.557C133.223 17.7612 135.266 12.2036 139.089 7.93576L139.093 7.93138C144.228 2.21324 152.272 0 161.758 0C166.161 0 170.415 0.623294 174.5 1.88757L177.621 2.85376L180.224 25.7998L176.748 24.873L178.311 41.8041C180.104 37.6446 182.698 34.076 186.189 31.215L186.191 31.2126C193.541 25.1748 203.043 22.4 214.193 22.4C225.327 22.4 234.796 25.1676 242.069 31.2153C249.858 37.5282 253.241 47.2973 253.241 59.272C253.241 71.2682 249.847 81.0636 242.071 87.4547L242.066 87.4594C234.79 93.4217 225.322 96.144 214.193 96.144C203.059 96.144 193.566 93.4202 186.218 87.4807L186.188 87.4571L186.16 87.4331C178.482 81.0351 175.145 71.2466 175.145 59.272C175.145 56.3186 175.348 53.499 175.769 50.832H169.872L167.952 94.864H134.827L132.907 50.832H128.028C128.131 52.0831 128.182 53.3609 128.182 54.664C128.182 63.0097 127.167 74.9955 125.198 90.4943L124.642 94.864H93.264L90.2992 61.6573C90.2989 61.6537 90.2985 61.6502 90.2982 61.6467C89.8933 57.3234 89.1429 54.6994 88.3858 53.3027C88.113 52.7995 87.9038 52.5771 87.8147 52.4963C87.4513 52.5015 87.3134 52.5791 87.2554 52.615C87.1747 52.6648 86.9279 52.8429 86.6071 53.411C85.8912 54.6784 85.2037 57.1785 85.0426 61.4906C85.0424 61.4954 85.0422 61.5002 85.0421 61.5051L83.995 94.864H50.8141L48.3023 38.1687L42.6889 94.864H8.6701ZM80.0455 61.32C80.3868 52.104 82.9895 47.496 87.8535 47.496C91.9495 47.496 94.4242 52.0613 95.2775 61.192L97.8375 89.864H120.238C122.2 74.4187 123.182 62.6853 123.182 54.664C123.182 46.5573 121.006 39.9867 116.653 34.952C112.387 29.9173 107.267 27.4 101.293 27.4C96.6855 27.4 92.5042 28.8507 88.7495 31.752C88.055 32.2831 87.3506 32.8925 86.6365 33.5801C85.8591 34.3287 85.0701 35.17 84.2695 36.104C82.7335 37.896 81.7522 39.2187 81.3255 40.072L81.8375 29.192H52.9095L55.5975 89.864H79.1495L80.0455 61.32ZM137.693 45.832L139.614 89.864H163.166L165.086 45.832H173.662L172.126 29.192H164.318V27.528C164.318 26.2871 164.408 25.1751 164.588 24.192C165.186 20.9358 166.773 19.0936 169.35 18.6653C169.741 18.6004 170.154 18.568 170.59 18.568C171.87 18.568 173.15 18.7387 174.43 19.08L173.021 6.664C169.438 5.55467 165.683 5 161.758 5C152.883 5 146.568 7.09067 142.814 11.272C139.144 15.368 137.31 21.3413 137.31 29.192H131.165L129.63 45.832H137.693ZM169.737 24.192H174.194L173.141 23.9112C172.267 23.678 171.42 23.568 170.59 23.568C170.363 23.568 170.211 23.5883 170.119 23.607C170.074 23.6163 170.042 23.6254 170.023 23.6316C170.019 23.6331 170.015 23.6345 170.012 23.6357C170.004 23.6443 169.994 23.6571 169.982 23.6753C169.921 23.7617 169.831 23.9255 169.737 24.192ZM238.896 35.08C232.753 29.96 224.518 27.4 214.193 27.4C203.867 27.4 195.59 29.96 189.361 35.08C183.217 40.1147 180.145 48.1787 180.145 59.272C180.145 70.3653 183.217 78.472 189.361 83.592C195.59 88.6267 203.867 91.144 214.193 91.144C224.518 91.144 232.753 88.6267 238.896 83.592C245.126 78.472 248.241 70.3653 248.241 59.272C248.241 48.1787 245.126 40.1147 238.896 35.08ZM38.1595 89.864H13.1995L5.5195 12.296H45.8395L38.1595 89.864ZM213.539 46.4509L213.531 46.4721C212.813 48.5078 212.281 52.5855 212.281 59.272C212.281 65.9193 212.806 70.0644 213.539 72.22C213.763 72.8507 213.965 73.12 214.042 73.208C214.074 73.212 214.124 73.216 214.193 73.216C214.261 73.216 214.311 73.212 214.343 73.208C214.42 73.12 214.622 72.8508 214.846 72.2202C215.579 70.0645 216.105 65.9194 216.105 59.272C216.105 52.5855 215.572 48.5078 214.854 46.4721L214.846 46.4509L214.839 46.4296C214.601 45.7358 214.383 45.4342 214.296 45.332C214.27 45.3298 214.236 45.328 214.193 45.328C214.149 45.328 214.115 45.3298 214.089 45.332C214.002 45.4342 213.784 45.7358 213.546 46.4296L213.539 46.4509ZM219.568 73.864C218.545 76.7653 216.753 78.216 214.193 78.216C211.633 78.216 209.84 76.7653 208.817 73.864C207.793 70.8773 207.281 66.0133 207.281 59.272C207.281 52.5307 207.793 47.7093 208.817 44.808C209.84 41.8213 211.633 40.328 214.193 40.328C216.753 40.328 218.545 41.8213 219.568 44.808C220.593 47.7093 221.105 52.5307 221.105 59.272C221.105 66.0133 220.593 70.8773 219.568 73.864Z" fill="#E7E61A"/>
<path fill-rule="evenodd" clip-rule="evenodd" d="M335.181 17.4084L326.073 36.7083L321.734 35.032C318.621 33.8292 315.102 33.192 311.12 33.192C305.789 33.192 302.639 34.7059 300.702 36.9572C298.641 39.3522 297.176 43.4714 297.176 50.208C297.176 56.4835 298.675 60.729 301.067 63.5646C303.693 66.4914 306.543 67.736 309.84 67.736C314.076 67.736 317.94 66.8654 321.5 65.1564L325.855 63.0662L330.937 72.7792C329.543 68.4411 328.89 63.5705 328.89 58.272C328.89 46.3054 332.224 36.5343 339.934 30.2149C347.284 24.1755 356.787 21.4 367.938 21.4C379.072 21.4 388.541 24.1676 395.815 30.2153C400.185 33.7572 403.168 38.3872 404.944 43.8843C405.286 42.5841 405.687 41.326 406.148 40.1119L406.163 40.0713L406.18 40.031C408.111 35.2033 410.782 31.1746 414.4 28.3479L414.404 28.3448C420.28 23.7634 426.942 21.4 434.246 21.4C437.818 21.4 441.211 22.1066 444.356 23.5708L443.524 0.791992H483.106L481.194 46.7651C482.159 43.1954 483.671 39.8858 485.765 36.8743C492.936 26.3835 504.031 21.4 518.042 21.4C528.328 21.4 537.001 23.4572 543.336 28.3046C546.559 30.7267 548.97 33.6483 550.577 36.995L549.704 23.192H583.68L585.156 27.0289C589.41 23.4048 594.437 21.4 600.214 21.4C604.224 21.4 607.995 22.3866 611.429 24.3801L614.355 26.0794L609.62 58.4408L602.979 53.7922C600.427 52.006 597.593 51.112 594.326 51.112C592.967 51.112 592.213 51.3925 591.794 51.6503C591.417 51.8828 591 52.2844 590.626 53.1444C589.937 54.8792 589.516 56.4617 589.316 57.9016L586.539 93.864H554.176L551.757 55.6364C550.427 59.3249 548.041 62.5285 544.669 65.1585L544.658 65.1671C543.965 65.7048 543.239 66.2017 542.481 66.6594L552.714 79.0376L550.027 82.2287C548.407 84.1518 546.521 85.9298 544.395 87.5724L544.338 87.6169L544.279 87.6597C541.845 89.4296 538.349 91.0688 534.134 92.6496L534.091 92.6658L534.047 92.6811C529.355 94.3429 524.303 95.144 518.938 95.144C508.267 95.144 498.976 92.046 491.393 85.6447L491.366 85.6221L491.34 85.5992C485.252 80.3129 481.723 73.2474 480.443 64.8059L479.234 93.864H451.378L450.352 89.9431C445.642 93.2688 440.215 95.0104 434.147 95.016C425.258 95.1107 417.72 91.7009 411.902 84.9641C408.759 81.3255 406.558 76.9368 405.183 71.9156C403.439 77.7736 400.384 82.7013 395.817 86.4547L395.811 86.4594C388.535 92.4217 379.068 95.144 367.938 95.144C356.804 95.144 347.312 92.4202 339.963 86.4807L339.934 86.4571L339.905 86.4331C338.368 85.1524 337.005 83.7358 335.808 82.1929L332.379 84.7053C322.803 91.7216 311.454 95.144 298.576 95.144C285.585 95.144 274.538 91.3058 265.876 83.3252L265.866 83.3156L265.855 83.306C257.071 75.1206 253 63.6106 253 49.568C253 35.4853 257.004 24.0132 265.763 16.0531C274.3 8.20839 285.456 4.504 298.704 4.504C304.251 4.504 310.09 5.50687 316.189 7.4177C322.364 9.32536 327.652 11.8057 331.897 14.9648L335.181 17.4084ZM314.704 12.192C308.987 10.4 303.653 9.504 298.704 9.504C286.416 9.504 276.56 12.9173 269.136 19.744C261.712 26.4853 258 36.4267 258 49.568C258 62.624 261.755 72.6507 269.264 79.648C276.859 86.6453 286.629 90.144 298.576 90.144C310.523 90.144 320.805 86.9867 329.424 80.672L323.664 69.664C319.397 71.712 314.789 72.736 309.84 72.736C304.976 72.736 300.795 70.7733 297.296 66.848C293.883 62.8373 292.176 57.2907 292.176 50.208C292.176 35.5307 298.491 28.192 311.12 28.192C315.643 28.192 319.781 28.9173 323.536 30.368L328.912 18.976C325.243 16.2453 320.507 13.984 314.704 12.192ZM448.981 84.7019C450.417 83.5148 451.777 82.1288 453.062 80.544L455.238 88.864H474.438L477.894 5.79199H448.71L449.734 33.824L448.198 32.032C447.436 31.0791 446.224 30.1499 444.563 29.2443C443.993 28.9334 443.37 28.6253 442.694 28.32C440.134 27.04 437.318 26.4 434.246 26.4C428.102 26.4 422.513 28.3627 417.478 32.288C414.747 34.4213 412.529 37.6213 410.822 41.888C409.201 46.1547 408.39 51.232 408.39 57.12C408.39 67.872 410.822 76.064 415.686 81.696C420.55 87.328 426.694 90.1013 434.118 90.016C439.743 90.016 444.697 88.2446 448.981 84.7019ZM448.838 68.384C447.558 71.1147 445.681 72.48 443.206 72.48C440.731 72.48 438.854 71.5413 437.574 69.664C436.294 67.7867 435.526 65.9947 435.27 64.288C435.014 62.5813 434.886 60.7893 434.886 58.912C434.886 48.672 437.403 43.552 442.438 43.552C448.07 43.552 450.886 48.672 450.886 58.912C450.886 62.4107 450.203 65.568 448.838 68.384ZM537.177 63.7485C537.904 63.4457 538.595 63.1134 539.251 62.7517C540.09 62.2882 540.871 61.7763 541.594 61.216C545.861 57.888 547.994 53.5787 547.994 48.288C547.994 41.4613 545.434 36.128 540.314 32.288C535.194 28.3627 527.77 26.4 518.042 26.4C505.327 26.4 495.941 30.8373 489.882 39.712C486.554 44.4907 484.89 50.2933 484.89 57.12C484.89 67.9573 488.133 76.192 494.618 81.824C501.189 87.3707 509.295 90.144 518.938 90.144C523.802 90.144 528.282 89.4187 532.378 87.968C536.474 86.432 539.461 84.9813 541.338 83.616C543.215 82.1653 544.837 80.6293 546.202 79.008L538.266 69.408C538.266 69.4081 538.266 69.4079 538.266 69.408C538.061 69.5847 537.853 69.7568 537.642 69.9236C534.097 72.7372 529.868 74.144 524.954 74.144C521.797 74.144 519.066 73.4187 516.762 71.968C516.158 71.5496 515.62 71.0743 515.149 70.542C514.548 69.8642 514.056 69.094 513.671 68.2314C513.663 68.2134 513.655 68.1955 513.647 68.1775C513.238 67.2442 512.953 66.2037 512.794 65.056L514.202 65.312C515.428 65.5493 516.728 65.7317 518.101 65.859C519.69 66.0063 521.377 66.08 523.162 66.08C528.775 66.08 533.446 65.3028 537.177 63.7485ZM584.342 57.376C584.598 55.4133 585.153 53.3653 586.006 51.232C587.457 47.8187 590.23 46.112 594.326 46.112C596.737 46.112 599.011 46.4934 601.15 47.2562C602.796 47.8435 604.361 48.6567 605.846 49.696L608.918 28.704C606.273 27.168 603.371 26.4 600.214 26.4C595.242 26.4 590.865 28.2807 587.084 32.0422C585.803 33.3163 584.59 34.8063 583.446 36.512L580.246 28.192H555.03L558.87 88.864H581.91L584.342 57.376ZM392.642 34.08C386.498 28.96 378.263 26.4 367.938 26.4C357.613 26.4 349.335 28.96 343.106 34.08C336.962 39.1147 333.89 47.1787 333.89 58.272C333.89 69.3653 336.962 77.472 343.106 82.592C349.335 87.6267 357.613 90.144 367.938 90.144C378.263 90.144 386.498 87.6267 392.642 82.592C398.871 77.472 401.986 69.3653 401.986 58.272C401.986 47.1787 398.871 39.1147 392.642 34.08ZM367.284 45.4509L367.277 45.4721C366.558 47.5078 366.026 51.5855 366.026 58.272C366.026 64.9197 366.551 69.0649 367.284 71.2205C367.509 71.8509 367.71 72.1201 367.788 72.208C367.82 72.212 367.869 72.216 367.938 72.216C368.007 72.216 368.056 72.212 368.088 72.2079C368.166 72.1201 368.367 71.8509 368.592 71.2206C369.325 69.0651 369.85 64.9199 369.85 58.272C369.85 51.5855 369.318 47.5078 368.599 45.4721L368.592 45.4509L368.584 45.4296C368.346 44.7358 368.129 44.4342 368.041 44.332C368.016 44.3298 367.982 44.328 367.938 44.328C367.894 44.328 367.86 44.3298 367.835 44.332C367.747 44.4342 367.53 44.7358 367.292 45.4296L367.284 45.4509ZM373.314 72.864C372.29 75.7653 370.498 77.216 367.938 77.216C365.378 77.216 363.586 75.7653 362.562 72.864C361.538 69.8773 361.026 65.0133 361.026 58.272C361.026 51.5307 361.538 46.7093 362.562 43.808C363.586 40.8213 365.378 39.328 367.938 39.328C370.498 39.328 372.29 40.8213 373.314 43.808C374.338 46.7093 374.85 51.5307 374.85 58.272C374.85 65.0133 374.338 69.8773 373.314 72.864ZM444.325 66.2321L444.339 66.2026C445.338 64.1431 445.886 61.7449 445.886 58.912C445.886 54.0866 445.194 51.2586 444.393 49.8016C444.034 49.1485 443.722 48.8966 443.542 48.788C443.373 48.6851 443.063 48.552 442.438 48.552C442.083 48.552 441.977 48.6248 441.943 48.6484L441.94 48.6505C441.873 48.6955 441.602 48.9046 441.261 49.5981C440.511 51.1239 439.886 54.0411 439.886 58.912C439.886 60.5625 439.999 62.1055 440.215 63.5463C440.33 64.3121 440.72 65.4031 441.705 66.8473C441.96 67.2212 442.211 67.48 443.206 67.48C443.36 67.48 443.433 67.4596 443.453 67.4533C443.47 67.4479 443.491 67.4403 443.529 67.4123C443.611 67.3527 443.925 67.0852 444.311 66.2618L444.325 66.2321ZM524.043 46.7425L523.983 46.6904C523.895 46.6137 523.418 46.248 521.882 46.248C521.231 46.248 520.273 46.4864 518.929 47.8164C518.908 47.8382 518.888 47.8601 518.868 47.882C519.136 47.8912 519.415 47.896 519.706 47.896C522.306 47.896 523.558 47.4483 524.052 47.1477C524.157 47.0776 524.234 47.0184 524.288 46.9722C524.285 46.9678 524.281 46.9622 524.275 46.9554C524.253 46.9279 524.202 46.8717 524.105 46.7926L524.043 46.7425ZM526.746 51.36C525.125 52.384 522.778 52.896 519.706 52.896C516.719 52.896 514.287 52.4693 512.41 51.616C512.41 48.8 513.391 46.368 515.354 44.32C517.402 42.272 519.578 41.248 521.882 41.248C524.186 41.248 525.978 41.8027 527.258 42.912C528.623 44.0213 529.306 45.4293 529.306 47.136C529.306 48.8427 528.453 50.2507 526.746 51.36Z" fill="#E7E61A"/>
</svg>
