<svg width="1087" height="704" viewBox="0 0 1087 704" fill="none" xmlns="http://www.w3.org/2000/svg">
<mask id="path-1-outside-1_9_5" maskUnits="userSpaceOnUse" x="-1" y="0" width="1088" height="593" fill="black">
<rect fill="white" x="-1" width="1088" height="593"/>
<path d="M350.77 389.332C348.775 390.928 346.98 392.724 345.384 394.719C343.788 397.113 342.192 399.108 340.596 400.704C339 402.3 337.404 403.098 335.808 403.098C334.611 403.497 333.214 402.699 331.618 400.704L326.83 394.719C316.456 381.951 308.875 368.185 304.087 353.422C299.698 338.659 295.908 323.497 292.716 307.936C289.524 291.976 286.132 275.617 282.541 258.859C279.349 242.101 274.162 225.543 266.98 209.184C259.399 220.755 252.217 234.321 245.434 249.882C238.651 265.044 232.267 280.605 226.282 296.565C220.696 312.525 215.509 328.285 210.721 343.846C206.332 359.008 202.741 372.175 199.948 383.347C198.751 387.736 197.155 390.729 195.16 392.325C193.564 394.32 192.168 396.514 190.971 398.908C190.173 400.504 188.976 402.898 187.38 406.09C185.784 409.681 183.988 411.477 181.993 411.477C179.998 411.477 178.602 410.878 177.804 409.681C177.006 408.484 175.809 406.888 174.213 404.893C153.864 374.17 138.103 342.051 126.931 308.535C116.158 274.62 108.178 242.301 102.991 211.578C92.2184 200.406 85.6349 191.229 83.2409 184.047C80.8469 176.865 78.8519 172.077 77.2559 169.683C74.4629 165.294 74.2634 161.104 76.6574 157.114C79.0514 153.124 82.4429 150.73 86.8319 149.932C89.2259 149.932 91.8194 149.733 94.6124 149.334C97.4054 148.935 100.198 149.334 102.991 150.531C107.779 152.925 112.567 158.511 117.355 167.289C122.542 175.668 127.929 190.431 133.515 211.578C135.909 221.952 138.702 232.924 141.894 244.495C145.485 256.066 149.076 267.637 152.667 279.208C156.258 290.38 159.849 301.153 163.44 311.527C167.031 321.901 170.023 330.879 172.417 338.46C177.604 330.081 183.789 318.31 190.971 303.148C198.153 287.986 205.933 272.026 214.312 255.268C222.691 238.111 231.27 221.154 240.048 204.396C248.826 187.239 257.404 172.675 265.783 160.705C267.379 158.311 268.975 156.715 270.571 155.917C272.167 155.119 273.763 154.122 275.359 152.925C276.556 152.127 277.554 151.129 278.352 149.932C279.549 148.336 280.546 147.538 281.344 147.538C284.536 146.74 286.132 147.738 286.132 150.531C288.526 158.112 291.718 167.887 295.708 179.857C300.097 191.827 304.486 205.194 308.875 219.957C313.264 234.72 317.254 250.48 320.845 267.238C324.835 283.597 327.828 299.757 329.823 315.717C334.611 304.944 339.798 292.575 345.384 278.61C350.97 264.246 356.955 249.283 363.339 233.722C370.122 218.161 377.304 202.401 384.885 186.441C392.865 170.481 401.443 155.319 410.62 140.955C413.413 136.566 417.004 132.576 421.393 128.985C425.782 124.995 429.772 121.005 433.363 117.015C436.555 113.823 439.149 110.83 441.144 108.037C443.139 105.244 445.732 102.451 448.924 99.6582C450.52 100.456 450.121 104.446 447.727 111.628C445.732 116.017 443.338 121.204 440.545 127.189C437.752 132.775 435.558 137.763 433.962 142.152C420.795 179.658 407.428 217.363 393.862 255.268C380.695 292.774 368.925 332.076 358.551 373.173C358.152 375.168 357.154 377.961 355.558 381.552C353.962 385.542 352.366 388.135 350.77 389.332Z"/>
<path d="M699.439 229.533C703.429 230.331 706.222 231.129 707.818 231.927C709.813 232.326 711.01 233.523 711.409 235.518L701.234 249.882C698.84 251.877 695.648 253.473 691.658 254.67C688.067 255.867 684.676 256.864 681.484 257.662C672.307 258.46 662.132 259.059 650.96 259.458C639.788 259.857 628.217 260.455 616.247 261.253C604.277 261.652 592.108 262.051 579.739 262.45C567.769 262.849 556.397 263.248 545.624 263.647C545.624 280.405 545.624 295.966 545.624 310.33C546.023 324.694 546.622 336.265 547.42 345.043C557.395 343.447 568.966 340.854 582.133 337.263C595.3 333.672 609.464 329.482 624.626 324.694C639.788 319.906 655.549 314.719 671.908 309.133C688.267 303.547 704.227 297.762 719.788 291.777C725.374 289.782 730.561 288.186 735.349 286.989C740.536 285.393 745.723 283.797 750.91 282.201C750.91 283.797 750.71 284.994 750.311 285.792C749.912 286.191 749.314 286.789 748.516 287.587C747.319 290.779 745.523 293.572 743.129 295.966C740.735 297.961 738.341 299.757 735.947 301.353C733.952 302.949 732.157 304.345 730.561 305.542C728.566 307.138 726.77 309.532 725.174 312.724C723.977 315.916 721.184 318.909 716.795 321.702C690.86 337.662 664.726 350.829 638.392 361.203C612.058 371.577 584.128 380.953 554.602 389.332C547.819 391.327 542.432 391.527 538.442 389.931C534.452 388.734 531.061 385.143 528.268 379.158C527.47 375.966 526.472 373.372 525.275 371.377C524.078 369.382 521.285 366.789 516.896 363.597C514.901 362.001 513.904 359.407 513.904 355.816C513.904 351.826 513.704 347.637 513.305 343.248C512.507 333.672 511.909 322.101 511.51 308.535C511.51 294.57 511.709 279.807 512.108 264.246H496.547C492.956 263.847 490.363 263.448 488.767 263.049C487.171 262.251 484.777 260.256 481.585 257.064C481.585 254.271 482.183 252.475 483.38 251.677C484.976 250.879 486.373 249.682 487.57 248.086C488.767 246.49 489.764 244.695 490.562 242.7C491.759 240.705 493.355 239.308 495.35 238.51C497.345 238.111 499.739 237.712 502.532 237.313C505.724 236.914 509.315 236.316 513.305 235.518C514.103 220.755 514.702 205.992 515.101 191.229C515.899 176.466 516.697 162.7 517.495 149.932H509.116C504.328 149.932 500.936 149.533 498.941 148.735C497.345 147.538 496.148 146.541 495.35 145.743C494.552 144.546 493.954 143.548 493.555 142.75C493.156 141.553 491.959 140.755 489.964 140.356C486.772 139.957 485.176 139.359 485.176 138.561C485.176 137.763 484.378 136.965 482.782 136.167C481.186 134.97 481.784 133.573 484.577 131.977C487.769 130.381 490.961 127.189 494.153 122.401C496.946 119.608 498.542 117.414 498.941 115.818C499.739 114.222 502.333 112.426 506.722 110.431C510.712 108.436 518.293 107.239 529.465 106.84C540.637 106.441 553.205 106.641 567.17 107.439C581.135 107.838 595.3 108.835 609.664 110.431C624.427 111.628 636.995 113.224 647.369 115.219C653.753 116.815 659.539 118.81 664.726 121.204C669.913 123.199 674.9 125.992 679.688 129.583C679.688 130.78 678.691 131.578 676.696 131.977C675.1 131.977 673.903 132.376 673.105 133.174C671.509 134.371 669.913 135.369 668.317 136.167C666.721 136.566 665.324 137.164 664.127 137.962C662.531 138.76 660.935 139.359 659.339 139.758C652.955 141.753 646.172 143.548 638.99 145.144C632.207 146.341 624.427 147.339 615.649 148.137C607.27 148.935 597.295 149.533 585.724 149.932C574.552 149.932 561.584 149.932 546.821 149.932C546.422 161.503 546.023 174.271 545.624 188.236C545.624 202.201 545.624 216.565 545.624 231.328C564.776 229.333 585.923 227.737 609.065 226.54C632.606 224.944 654.551 223.947 674.9 223.548C679.289 223.548 683.479 224.545 687.469 226.54C691.459 228.535 695.449 229.533 699.439 229.533Z"/>
<path d="M938.217 139.758C939.015 145.344 938.616 149.334 937.02 151.728C935.823 154.122 934.825 157.912 934.027 163.099C932.032 175.867 928.641 187.837 923.853 199.009C919.065 209.782 913.08 220.555 905.898 231.328C913.878 231.328 922.656 231.528 932.232 231.927C942.207 232.326 951.783 233.722 960.96 236.116C963.753 236.914 966.147 238.311 968.142 240.306C970.536 242.301 972.73 244.096 974.725 245.692C977.917 247.687 980.71 249.483 983.104 251.079C985.498 252.675 987.493 254.869 989.089 257.662C993.079 265.243 994.675 272.824 993.877 280.405C993.478 287.587 991.284 294.969 987.294 302.55C976.92 322.899 962.356 343.647 943.603 364.794C925.249 385.941 905.898 405.891 885.549 424.644C881.958 427.038 878.766 428.235 875.973 428.235C873.18 428.634 870.586 429.232 868.192 430.03C864.601 431.626 861.01 432.823 857.419 433.621C854.227 434.419 852.033 434.419 850.836 433.621C849.24 432.424 849.24 431.028 850.836 429.432C852.432 428.235 853.828 426.639 855.025 424.644C862.606 411.876 871.983 399.307 883.155 386.938C894.726 374.968 906.496 362.799 918.466 350.43C930.436 338.061 942.007 325.891 953.179 313.921C964.75 301.552 974.326 288.984 981.907 276.216C974.326 272.226 963.952 269.433 950.785 267.837C938.017 266.241 924.651 265.443 910.686 265.443C896.721 265.443 883.554 266.44 871.185 268.435C858.816 270.43 849.639 273.024 843.654 276.216C843.654 279.009 843.654 282.799 843.654 287.587C843.654 291.976 843.454 296.764 843.055 301.951C842.656 307.138 842.257 312.525 841.858 318.111C841.858 323.298 841.659 328.285 841.26 333.073C840.063 338.659 840.063 343.647 841.26 348.036C842.457 352.425 843.454 356.814 844.252 361.203C845.05 366.39 845.449 370.978 845.449 374.968C845.449 378.958 845.449 383.148 845.449 387.537C845.449 389.931 845.649 392.524 846.048 395.317C846.447 398.509 846.048 401.502 844.851 404.295C834.477 392.325 826.297 378.16 820.312 361.801C814.327 345.442 809.739 328.086 806.547 309.732C803.355 291.378 801.36 272.625 800.562 253.473C799.764 234.321 799.564 215.967 799.963 198.411C800.362 180.456 800.961 164.097 801.759 149.334C802.956 134.571 803.953 122.202 804.751 112.227C800.362 111.828 794.976 112.227 788.592 113.424C782.208 114.222 776.223 115.219 770.637 116.416C769.44 116.416 767.844 116.416 765.849 116.416C763.854 116.416 761.659 116.416 759.265 116.416C757.27 116.017 755.475 115.618 753.879 115.219C752.283 114.82 751.285 114.421 750.886 114.022C749.689 112.825 748.492 112.825 747.295 114.022C746.497 114.82 745.699 114.421 744.901 112.825C743.305 109.633 743.106 106.84 744.303 104.446C745.5 101.653 745.101 98.6607 743.106 95.4687C746.697 89.0847 753.081 84.8952 762.258 82.9002C771.834 80.9052 782.407 79.5087 793.978 78.7107C803.554 76.7157 813.529 75.5187 823.903 75.1197C834.676 74.7207 845.25 75.3192 855.624 76.9152C866.397 78.1122 876.571 80.5062 886.147 84.0972C895.723 87.6882 904.501 92.4762 912.481 98.4612C917.269 102.052 921.858 106.641 926.247 112.227C928.242 115.02 930.237 119.608 932.232 125.992C934.626 131.977 936.621 136.566 938.217 139.758ZM910.087 139.758C907.693 134.571 903.703 130.182 898.117 126.591C892.93 122.601 887.145 119.409 880.761 117.015C874.776 114.621 868.392 112.825 861.609 111.628C855.225 110.431 849.439 109.833 844.252 109.833C843.454 114.621 842.457 122.401 841.26 133.174C840.462 143.548 839.664 154.92 838.866 167.289C838.467 179.259 838.068 191.229 837.669 203.199C837.27 214.77 837.469 224.346 838.267 231.927C845.848 228.735 853.429 224.545 861.01 219.358C868.591 214.171 875.574 207.787 881.958 200.206C888.342 192.625 893.928 183.847 898.716 173.872C903.903 163.897 907.693 152.526 910.087 139.758Z"/>
</mask>
<path d="M350.77 389.332C348.775 390.928 346.98 392.724 345.384 394.719C343.788 397.113 342.192 399.108 340.596 400.704C339 402.3 337.404 403.098 335.808 403.098C334.611 403.497 333.214 402.699 331.618 400.704L326.83 394.719C316.456 381.951 308.875 368.185 304.087 353.422C299.698 338.659 295.908 323.497 292.716 307.936C289.524 291.976 286.132 275.617 282.541 258.859C279.349 242.101 274.162 225.543 266.98 209.184C259.399 220.755 252.217 234.321 245.434 249.882C238.651 265.044 232.267 280.605 226.282 296.565C220.696 312.525 215.509 328.285 210.721 343.846C206.332 359.008 202.741 372.175 199.948 383.347C198.751 387.736 197.155 390.729 195.16 392.325C193.564 394.32 192.168 396.514 190.971 398.908C190.173 400.504 188.976 402.898 187.38 406.09C185.784 409.681 183.988 411.477 181.993 411.477C179.998 411.477 178.602 410.878 177.804 409.681C177.006 408.484 175.809 406.888 174.213 404.893C153.864 374.17 138.103 342.051 126.931 308.535C116.158 274.62 108.178 242.301 102.991 211.578C92.2184 200.406 85.6349 191.229 83.2409 184.047C80.8469 176.865 78.8519 172.077 77.2559 169.683C74.4629 165.294 74.2634 161.104 76.6574 157.114C79.0514 153.124 82.4429 150.73 86.8319 149.932C89.2259 149.932 91.8194 149.733 94.6124 149.334C97.4054 148.935 100.198 149.334 102.991 150.531C107.779 152.925 112.567 158.511 117.355 167.289C122.542 175.668 127.929 190.431 133.515 211.578C135.909 221.952 138.702 232.924 141.894 244.495C145.485 256.066 149.076 267.637 152.667 279.208C156.258 290.38 159.849 301.153 163.44 311.527C167.031 321.901 170.023 330.879 172.417 338.46C177.604 330.081 183.789 318.31 190.971 303.148C198.153 287.986 205.933 272.026 214.312 255.268C222.691 238.111 231.27 221.154 240.048 204.396C248.826 187.239 257.404 172.675 265.783 160.705C267.379 158.311 268.975 156.715 270.571 155.917C272.167 155.119 273.763 154.122 275.359 152.925C276.556 152.127 277.554 151.129 278.352 149.932C279.549 148.336 280.546 147.538 281.344 147.538C284.536 146.74 286.132 147.738 286.132 150.531C288.526 158.112 291.718 167.887 295.708 179.857C300.097 191.827 304.486 205.194 308.875 219.957C313.264 234.72 317.254 250.48 320.845 267.238C324.835 283.597 327.828 299.757 329.823 315.717C334.611 304.944 339.798 292.575 345.384 278.61C350.97 264.246 356.955 249.283 363.339 233.722C370.122 218.161 377.304 202.401 384.885 186.441C392.865 170.481 401.443 155.319 410.62 140.955C413.413 136.566 417.004 132.576 421.393 128.985C425.782 124.995 429.772 121.005 433.363 117.015C436.555 113.823 439.149 110.83 441.144 108.037C443.139 105.244 445.732 102.451 448.924 99.6582C450.52 100.456 450.121 104.446 447.727 111.628C445.732 116.017 443.338 121.204 440.545 127.189C437.752 132.775 435.558 137.763 433.962 142.152C420.795 179.658 407.428 217.363 393.862 255.268C380.695 292.774 368.925 332.076 358.551 373.173C358.152 375.168 357.154 377.961 355.558 381.552C353.962 385.542 352.366 388.135 350.77 389.332Z" fill="#222222"/>
<path d="M699.439 229.533C703.429 230.331 706.222 231.129 707.818 231.927C709.813 232.326 711.01 233.523 711.409 235.518L701.234 249.882C698.84 251.877 695.648 253.473 691.658 254.67C688.067 255.867 684.676 256.864 681.484 257.662C672.307 258.46 662.132 259.059 650.96 259.458C639.788 259.857 628.217 260.455 616.247 261.253C604.277 261.652 592.108 262.051 579.739 262.45C567.769 262.849 556.397 263.248 545.624 263.647C545.624 280.405 545.624 295.966 545.624 310.33C546.023 324.694 546.622 336.265 547.42 345.043C557.395 343.447 568.966 340.854 582.133 337.263C595.3 333.672 609.464 329.482 624.626 324.694C639.788 319.906 655.549 314.719 671.908 309.133C688.267 303.547 704.227 297.762 719.788 291.777C725.374 289.782 730.561 288.186 735.349 286.989C740.536 285.393 745.723 283.797 750.91 282.201C750.91 283.797 750.71 284.994 750.311 285.792C749.912 286.191 749.314 286.789 748.516 287.587C747.319 290.779 745.523 293.572 743.129 295.966C740.735 297.961 738.341 299.757 735.947 301.353C733.952 302.949 732.157 304.345 730.561 305.542C728.566 307.138 726.77 309.532 725.174 312.724C723.977 315.916 721.184 318.909 716.795 321.702C690.86 337.662 664.726 350.829 638.392 361.203C612.058 371.577 584.128 380.953 554.602 389.332C547.819 391.327 542.432 391.527 538.442 389.931C534.452 388.734 531.061 385.143 528.268 379.158C527.47 375.966 526.472 373.372 525.275 371.377C524.078 369.382 521.285 366.789 516.896 363.597C514.901 362.001 513.904 359.407 513.904 355.816C513.904 351.826 513.704 347.637 513.305 343.248C512.507 333.672 511.909 322.101 511.51 308.535C511.51 294.57 511.709 279.807 512.108 264.246H496.547C492.956 263.847 490.363 263.448 488.767 263.049C487.171 262.251 484.777 260.256 481.585 257.064C481.585 254.271 482.183 252.475 483.38 251.677C484.976 250.879 486.373 249.682 487.57 248.086C488.767 246.49 489.764 244.695 490.562 242.7C491.759 240.705 493.355 239.308 495.35 238.51C497.345 238.111 499.739 237.712 502.532 237.313C505.724 236.914 509.315 236.316 513.305 235.518C514.103 220.755 514.702 205.992 515.101 191.229C515.899 176.466 516.697 162.7 517.495 149.932H509.116C504.328 149.932 500.936 149.533 498.941 148.735C497.345 147.538 496.148 146.541 495.35 145.743C494.552 144.546 493.954 143.548 493.555 142.75C493.156 141.553 491.959 140.755 489.964 140.356C486.772 139.957 485.176 139.359 485.176 138.561C485.176 137.763 484.378 136.965 482.782 136.167C481.186 134.97 481.784 133.573 484.577 131.977C487.769 130.381 490.961 127.189 494.153 122.401C496.946 119.608 498.542 117.414 498.941 115.818C499.739 114.222 502.333 112.426 506.722 110.431C510.712 108.436 518.293 107.239 529.465 106.84C540.637 106.441 553.205 106.641 567.17 107.439C581.135 107.838 595.3 108.835 609.664 110.431C624.427 111.628 636.995 113.224 647.369 115.219C653.753 116.815 659.539 118.81 664.726 121.204C669.913 123.199 674.9 125.992 679.688 129.583C679.688 130.78 678.691 131.578 676.696 131.977C675.1 131.977 673.903 132.376 673.105 133.174C671.509 134.371 669.913 135.369 668.317 136.167C666.721 136.566 665.324 137.164 664.127 137.962C662.531 138.76 660.935 139.359 659.339 139.758C652.955 141.753 646.172 143.548 638.99 145.144C632.207 146.341 624.427 147.339 615.649 148.137C607.27 148.935 597.295 149.533 585.724 149.932C574.552 149.932 561.584 149.932 546.821 149.932C546.422 161.503 546.023 174.271 545.624 188.236C545.624 202.201 545.624 216.565 545.624 231.328C564.776 229.333 585.923 227.737 609.065 226.54C632.606 224.944 654.551 223.947 674.9 223.548C679.289 223.548 683.479 224.545 687.469 226.54C691.459 228.535 695.449 229.533 699.439 229.533Z" fill="#222222"/>
<path d="M938.217 139.758C939.015 145.344 938.616 149.334 937.02 151.728C935.823 154.122 934.825 157.912 934.027 163.099C932.032 175.867 928.641 187.837 923.853 199.009C919.065 209.782 913.08 220.555 905.898 231.328C913.878 231.328 922.656 231.528 932.232 231.927C942.207 232.326 951.783 233.722 960.96 236.116C963.753 236.914 966.147 238.311 968.142 240.306C970.536 242.301 972.73 244.096 974.725 245.692C977.917 247.687 980.71 249.483 983.104 251.079C985.498 252.675 987.493 254.869 989.089 257.662C993.079 265.243 994.675 272.824 993.877 280.405C993.478 287.587 991.284 294.969 987.294 302.55C976.92 322.899 962.356 343.647 943.603 364.794C925.249 385.941 905.898 405.891 885.549 424.644C881.958 427.038 878.766 428.235 875.973 428.235C873.18 428.634 870.586 429.232 868.192 430.03C864.601 431.626 861.01 432.823 857.419 433.621C854.227 434.419 852.033 434.419 850.836 433.621C849.24 432.424 849.24 431.028 850.836 429.432C852.432 428.235 853.828 426.639 855.025 424.644C862.606 411.876 871.983 399.307 883.155 386.938C894.726 374.968 906.496 362.799 918.466 350.43C930.436 338.061 942.007 325.891 953.179 313.921C964.75 301.552 974.326 288.984 981.907 276.216C974.326 272.226 963.952 269.433 950.785 267.837C938.017 266.241 924.651 265.443 910.686 265.443C896.721 265.443 883.554 266.44 871.185 268.435C858.816 270.43 849.639 273.024 843.654 276.216C843.654 279.009 843.654 282.799 843.654 287.587C843.654 291.976 843.454 296.764 843.055 301.951C842.656 307.138 842.257 312.525 841.858 318.111C841.858 323.298 841.659 328.285 841.26 333.073C840.063 338.659 840.063 343.647 841.26 348.036C842.457 352.425 843.454 356.814 844.252 361.203C845.05 366.39 845.449 370.978 845.449 374.968C845.449 378.958 845.449 383.148 845.449 387.537C845.449 389.931 845.649 392.524 846.048 395.317C846.447 398.509 846.048 401.502 844.851 404.295C834.477 392.325 826.297 378.16 820.312 361.801C814.327 345.442 809.739 328.086 806.547 309.732C803.355 291.378 801.36 272.625 800.562 253.473C799.764 234.321 799.564 215.967 799.963 198.411C800.362 180.456 800.961 164.097 801.759 149.334C802.956 134.571 803.953 122.202 804.751 112.227C800.362 111.828 794.976 112.227 788.592 113.424C782.208 114.222 776.223 115.219 770.637 116.416C769.44 116.416 767.844 116.416 765.849 116.416C763.854 116.416 761.659 116.416 759.265 116.416C757.27 116.017 755.475 115.618 753.879 115.219C752.283 114.82 751.285 114.421 750.886 114.022C749.689 112.825 748.492 112.825 747.295 114.022C746.497 114.82 745.699 114.421 744.901 112.825C743.305 109.633 743.106 106.84 744.303 104.446C745.5 101.653 745.101 98.6607 743.106 95.4687C746.697 89.0847 753.081 84.8952 762.258 82.9002C771.834 80.9052 782.407 79.5087 793.978 78.7107C803.554 76.7157 813.529 75.5187 823.903 75.1197C834.676 74.7207 845.25 75.3192 855.624 76.9152C866.397 78.1122 876.571 80.5062 886.147 84.0972C895.723 87.6882 904.501 92.4762 912.481 98.4612C917.269 102.052 921.858 106.641 926.247 112.227C928.242 115.02 930.237 119.608 932.232 125.992C934.626 131.977 936.621 136.566 938.217 139.758ZM910.087 139.758C907.693 134.571 903.703 130.182 898.117 126.591C892.93 122.601 887.145 119.409 880.761 117.015C874.776 114.621 868.392 112.825 861.609 111.628C855.225 110.431 849.439 109.833 844.252 109.833C843.454 114.621 842.457 122.401 841.26 133.174C840.462 143.548 839.664 154.92 838.866 167.289C838.467 179.259 838.068 191.229 837.669 203.199C837.27 214.77 837.469 224.346 838.267 231.927C845.848 228.735 853.429 224.545 861.01 219.358C868.591 214.171 875.574 207.787 881.958 200.206C888.342 192.625 893.928 183.847 898.716 173.872C903.903 163.897 907.693 152.526 910.087 139.758Z" fill="#222222"/>
<path d="M350.77 389.332C348.775 390.928 346.98 392.724 345.384 394.719C343.788 397.113 342.192 399.108 340.596 400.704C339 402.3 337.404 403.098 335.808 403.098C334.611 403.497 333.214 402.699 331.618 400.704L326.83 394.719C316.456 381.951 308.875 368.185 304.087 353.422C299.698 338.659 295.908 323.497 292.716 307.936C289.524 291.976 286.132 275.617 282.541 258.859C279.349 242.101 274.162 225.543 266.98 209.184C259.399 220.755 252.217 234.321 245.434 249.882C238.651 265.044 232.267 280.605 226.282 296.565C220.696 312.525 215.509 328.285 210.721 343.846C206.332 359.008 202.741 372.175 199.948 383.347C198.751 387.736 197.155 390.729 195.16 392.325C193.564 394.32 192.168 396.514 190.971 398.908C190.173 400.504 188.976 402.898 187.38 406.09C185.784 409.681 183.988 411.477 181.993 411.477C179.998 411.477 178.602 410.878 177.804 409.681C177.006 408.484 175.809 406.888 174.213 404.893C153.864 374.17 138.103 342.051 126.931 308.535C116.158 274.62 108.178 242.301 102.991 211.578C92.2184 200.406 85.6349 191.229 83.2409 184.047C80.8469 176.865 78.8519 172.077 77.2559 169.683C74.4629 165.294 74.2634 161.104 76.6574 157.114C79.0514 153.124 82.4429 150.73 86.8319 149.932C89.2259 149.932 91.8194 149.733 94.6124 149.334C97.4054 148.935 100.198 149.334 102.991 150.531C107.779 152.925 112.567 158.511 117.355 167.289C122.542 175.668 127.929 190.431 133.515 211.578C135.909 221.952 138.702 232.924 141.894 244.495C145.485 256.066 149.076 267.637 152.667 279.208C156.258 290.38 159.849 301.153 163.44 311.527C167.031 321.901 170.023 330.879 172.417 338.46C177.604 330.081 183.789 318.31 190.971 303.148C198.153 287.986 205.933 272.026 214.312 255.268C222.691 238.111 231.27 221.154 240.048 204.396C248.826 187.239 257.404 172.675 265.783 160.705C267.379 158.311 268.975 156.715 270.571 155.917C272.167 155.119 273.763 154.122 275.359 152.925C276.556 152.127 277.554 151.129 278.352 149.932C279.549 148.336 280.546 147.538 281.344 147.538C284.536 146.74 286.132 147.738 286.132 150.531C288.526 158.112 291.718 167.887 295.708 179.857C300.097 191.827 304.486 205.194 308.875 219.957C313.264 234.72 317.254 250.48 320.845 267.238C324.835 283.597 327.828 299.757 329.823 315.717C334.611 304.944 339.798 292.575 345.384 278.61C350.97 264.246 356.955 249.283 363.339 233.722C370.122 218.161 377.304 202.401 384.885 186.441C392.865 170.481 401.443 155.319 410.62 140.955C413.413 136.566 417.004 132.576 421.393 128.985C425.782 124.995 429.772 121.005 433.363 117.015C436.555 113.823 439.149 110.83 441.144 108.037C443.139 105.244 445.732 102.451 448.924 99.6582C450.52 100.456 450.121 104.446 447.727 111.628C445.732 116.017 443.338 121.204 440.545 127.189C437.752 132.775 435.558 137.763 433.962 142.152C420.795 179.658 407.428 217.363 393.862 255.268C380.695 292.774 368.925 332.076 358.551 373.173C358.152 375.168 357.154 377.961 355.558 381.552C353.962 385.542 352.366 388.135 350.77 389.332Z" stroke="#E7E61A" stroke-width="150" mask="url(#path-1-outside-1_9_5)"/>
<path d="M699.439 229.533C703.429 230.331 706.222 231.129 707.818 231.927C709.813 232.326 711.01 233.523 711.409 235.518L701.234 249.882C698.84 251.877 695.648 253.473 691.658 254.67C688.067 255.867 684.676 256.864 681.484 257.662C672.307 258.46 662.132 259.059 650.96 259.458C639.788 259.857 628.217 260.455 616.247 261.253C604.277 261.652 592.108 262.051 579.739 262.45C567.769 262.849 556.397 263.248 545.624 263.647C545.624 280.405 545.624 295.966 545.624 310.33C546.023 324.694 546.622 336.265 547.42 345.043C557.395 343.447 568.966 340.854 582.133 337.263C595.3 333.672 609.464 329.482 624.626 324.694C639.788 319.906 655.549 314.719 671.908 309.133C688.267 303.547 704.227 297.762 719.788 291.777C725.374 289.782 730.561 288.186 735.349 286.989C740.536 285.393 745.723 283.797 750.91 282.201C750.91 283.797 750.71 284.994 750.311 285.792C749.912 286.191 749.314 286.789 748.516 287.587C747.319 290.779 745.523 293.572 743.129 295.966C740.735 297.961 738.341 299.757 735.947 301.353C733.952 302.949 732.157 304.345 730.561 305.542C728.566 307.138 726.77 309.532 725.174 312.724C723.977 315.916 721.184 318.909 716.795 321.702C690.86 337.662 664.726 350.829 638.392 361.203C612.058 371.577 584.128 380.953 554.602 389.332C547.819 391.327 542.432 391.527 538.442 389.931C534.452 388.734 531.061 385.143 528.268 379.158C527.47 375.966 526.472 373.372 525.275 371.377C524.078 369.382 521.285 366.789 516.896 363.597C514.901 362.001 513.904 359.407 513.904 355.816C513.904 351.826 513.704 347.637 513.305 343.248C512.507 333.672 511.909 322.101 511.51 308.535C511.51 294.57 511.709 279.807 512.108 264.246H496.547C492.956 263.847 490.363 263.448 488.767 263.049C487.171 262.251 484.777 260.256 481.585 257.064C481.585 254.271 482.183 252.475 483.38 251.677C484.976 250.879 486.373 249.682 487.57 248.086C488.767 246.49 489.764 244.695 490.562 242.7C491.759 240.705 493.355 239.308 495.35 238.51C497.345 238.111 499.739 237.712 502.532 237.313C505.724 236.914 509.315 236.316 513.305 235.518C514.103 220.755 514.702 205.992 515.101 191.229C515.899 176.466 516.697 162.7 517.495 149.932H509.116C504.328 149.932 500.936 149.533 498.941 148.735C497.345 147.538 496.148 146.541 495.35 145.743C494.552 144.546 493.954 143.548 493.555 142.75C493.156 141.553 491.959 140.755 489.964 140.356C486.772 139.957 485.176 139.359 485.176 138.561C485.176 137.763 484.378 136.965 482.782 136.167C481.186 134.97 481.784 133.573 484.577 131.977C487.769 130.381 490.961 127.189 494.153 122.401C496.946 119.608 498.542 117.414 498.941 115.818C499.739 114.222 502.333 112.426 506.722 110.431C510.712 108.436 518.293 107.239 529.465 106.84C540.637 106.441 553.205 106.641 567.17 107.439C581.135 107.838 595.3 108.835 609.664 110.431C624.427 111.628 636.995 113.224 647.369 115.219C653.753 116.815 659.539 118.81 664.726 121.204C669.913 123.199 674.9 125.992 679.688 129.583C679.688 130.78 678.691 131.578 676.696 131.977C675.1 131.977 673.903 132.376 673.105 133.174C671.509 134.371 669.913 135.369 668.317 136.167C666.721 136.566 665.324 137.164 664.127 137.962C662.531 138.76 660.935 139.359 659.339 139.758C652.955 141.753 646.172 143.548 638.99 145.144C632.207 146.341 624.427 147.339 615.649 148.137C607.27 148.935 597.295 149.533 585.724 149.932C574.552 149.932 561.584 149.932 546.821 149.932C546.422 161.503 546.023 174.271 545.624 188.236C545.624 202.201 545.624 216.565 545.624 231.328C564.776 229.333 585.923 227.737 609.065 226.54C632.606 224.944 654.551 223.947 674.9 223.548C679.289 223.548 683.479 224.545 687.469 226.54C691.459 228.535 695.449 229.533 699.439 229.533Z" stroke="#E7E61A" stroke-width="150" mask="url(#path-1-outside-1_9_5)"/>
<path d="M938.217 139.758C939.015 145.344 938.616 149.334 937.02 151.728C935.823 154.122 934.825 157.912 934.027 163.099C932.032 175.867 928.641 187.837 923.853 199.009C919.065 209.782 913.08 220.555 905.898 231.328C913.878 231.328 922.656 231.528 932.232 231.927C942.207 232.326 951.783 233.722 960.96 236.116C963.753 236.914 966.147 238.311 968.142 240.306C970.536 242.301 972.73 244.096 974.725 245.692C977.917 247.687 980.71 249.483 983.104 251.079C985.498 252.675 987.493 254.869 989.089 257.662C993.079 265.243 994.675 272.824 993.877 280.405C993.478 287.587 991.284 294.969 987.294 302.55C976.92 322.899 962.356 343.647 943.603 364.794C925.249 385.941 905.898 405.891 885.549 424.644C881.958 427.038 878.766 428.235 875.973 428.235C873.18 428.634 870.586 429.232 868.192 430.03C864.601 431.626 861.01 432.823 857.419 433.621C854.227 434.419 852.033 434.419 850.836 433.621C849.24 432.424 849.24 431.028 850.836 429.432C852.432 428.235 853.828 426.639 855.025 424.644C862.606 411.876 871.983 399.307 883.155 386.938C894.726 374.968 906.496 362.799 918.466 350.43C930.436 338.061 942.007 325.891 953.179 313.921C964.75 301.552 974.326 288.984 981.907 276.216C974.326 272.226 963.952 269.433 950.785 267.837C938.017 266.241 924.651 265.443 910.686 265.443C896.721 265.443 883.554 266.44 871.185 268.435C858.816 270.43 849.639 273.024 843.654 276.216C843.654 279.009 843.654 282.799 843.654 287.587C843.654 291.976 843.454 296.764 843.055 301.951C842.656 307.138 842.257 312.525 841.858 318.111C841.858 323.298 841.659 328.285 841.26 333.073C840.063 338.659 840.063 343.647 841.26 348.036C842.457 352.425 843.454 356.814 844.252 361.203C845.05 366.39 845.449 370.978 845.449 374.968C845.449 378.958 845.449 383.148 845.449 387.537C845.449 389.931 845.649 392.524 846.048 395.317C846.447 398.509 846.048 401.502 844.851 404.295C834.477 392.325 826.297 378.16 820.312 361.801C814.327 345.442 809.739 328.086 806.547 309.732C803.355 291.378 801.36 272.625 800.562 253.473C799.764 234.321 799.564 215.967 799.963 198.411C800.362 180.456 800.961 164.097 801.759 149.334C802.956 134.571 803.953 122.202 804.751 112.227C800.362 111.828 794.976 112.227 788.592 113.424C782.208 114.222 776.223 115.219 770.637 116.416C769.44 116.416 767.844 116.416 765.849 116.416C763.854 116.416 761.659 116.416 759.265 116.416C757.27 116.017 755.475 115.618 753.879 115.219C752.283 114.82 751.285 114.421 750.886 114.022C749.689 112.825 748.492 112.825 747.295 114.022C746.497 114.82 745.699 114.421 744.901 112.825C743.305 109.633 743.106 106.84 744.303 104.446C745.5 101.653 745.101 98.6607 743.106 95.4687C746.697 89.0847 753.081 84.8952 762.258 82.9002C771.834 80.9052 782.407 79.5087 793.978 78.7107C803.554 76.7157 813.529 75.5187 823.903 75.1197C834.676 74.7207 845.25 75.3192 855.624 76.9152C866.397 78.1122 876.571 80.5062 886.147 84.0972C895.723 87.6882 904.501 92.4762 912.481 98.4612C917.269 102.052 921.858 106.641 926.247 112.227C928.242 115.02 930.237 119.608 932.232 125.992C934.626 131.977 936.621 136.566 938.217 139.758ZM910.087 139.758C907.693 134.571 903.703 130.182 898.117 126.591C892.93 122.601 887.145 119.409 880.761 117.015C874.776 114.621 868.392 112.825 861.609 111.628C855.225 110.431 849.439 109.833 844.252 109.833C843.454 114.621 842.457 122.401 841.26 133.174C840.462 143.548 839.664 154.92 838.866 167.289C838.467 179.259 838.068 191.229 837.669 203.199C837.27 214.77 837.469 224.346 838.267 231.927C845.848 228.735 853.429 224.545 861.01 219.358C868.591 214.171 875.574 207.787 881.958 200.206C888.342 192.625 893.928 183.847 898.716 173.872C903.903 163.897 907.693 152.526 910.087 139.758Z" stroke="#E7E61A" stroke-width="150" mask="url(#path-1-outside-1_9_5)"/>
<mask id="path-2-outside-2_9_5" maskUnits="userSpaceOnUse" x="315.018" y="439.183" width="561.79" height="273.06" fill="black">
<rect fill="white" x="315.018" y="439.183" width="561.79" height="273.06"/>
</svg>
