<?xml version="1.0" encoding="utf-8"?><svg viewBox="0 0 152 25" xmlns="http://www.w3.org/2000/svg" xmlns:xlink="http://www.w3.org/1999/xlink"><style>:root>svg{display:none}:root>svg:target{display:block}</style><svg fill="none" viewBox="0 0 152 25" id="logo" xmlns="http://www.w3.org/2000/svg"><path d="M5.99 2.94V24H.86V2.94h5.13zm13.918 4.14c1.96 0 3.52.64 4.68 1.92 1.18 1.26 1.77 3 1.77 5.22V24h-5.1v-9.09c0-1.12-.29-1.99-.87-2.61-.58-.62-1.36-.93-2.34-.93-.98 0-1.76.31-2.34.93-.58.62-.87 1.49-.87 2.61V24h-5.13V7.26h5.13v2.22c.52-.74 1.22-1.32 2.1-1.74.88-.44 1.87-.66 2.97-.66zm18.414 4.44h-2.76V24h-5.13V11.52h-1.86V7.26h1.86v-.48c0-2.06.59-3.62 1.77-4.68 1.18-1.08 2.91-1.62 5.19-1.62.38 0 .66.01.84.03v4.35c-.98-.06-1.67.08-2.07.42-.4.34-.6.95-.6 1.83v.15h2.76v4.26zm10.031 12.72c-1.64 0-3.12-.35-4.44-1.05-1.3-.7-2.33-1.7-3.09-3-.74-1.3-1.11-2.82-1.11-4.56 0-1.72.38-3.23 1.14-4.53.76-1.32 1.8-2.33 3.12-3.03 1.32-.7 2.8-1.05 4.44-1.05 1.64 0 3.12.35 4.44 1.05 1.32.7 2.36 1.71 3.12 3.03.76 1.3 1.14 2.81 1.14 4.53 0 1.72-.39 3.24-1.17 4.56-.76 1.3-1.81 2.3-3.15 3-1.32.7-2.8 1.05-4.44 1.05zm0-4.44c.98 0 1.81-.36 2.49-1.08.7-.72 1.05-1.75 1.05-3.09 0-1.34-.34-2.37-1.02-3.09-.66-.72-1.48-1.08-2.46-1.08-1 0-1.83.36-2.49 1.08-.66.7-.99 1.73-.99 3.09 0 1.34.32 2.37.96 3.09.66.72 1.48 1.08 2.46 1.08zm10.612-6.36c0-2.08.45-3.93 1.35-5.55.9-1.64 2.15-2.91 3.75-3.81 1.62-.92 3.45-1.38 5.49-1.38 2.5 0 4.64.66 6.42 1.98 1.78 1.32 2.97 3.12 3.57 5.4h-5.64c-.42-.88-1.02-1.55-1.8-2.01-.76-.46-1.63-.69-2.61-.69-1.58 0-2.86.55-3.84 1.65-.98 1.1-1.47 2.57-1.47 4.41 0 1.84.49 3.31 1.47 4.41s2.26 1.65 3.84 1.65c.98 0 1.85-.23 2.61-.69.78-.46 1.38-1.13 1.8-2.01h5.64c-.6 2.28-1.79 4.08-3.57 5.4-1.78 1.3-3.92 1.95-6.42 1.95-2.04 0-3.87-.45-5.49-1.35a9.809 9.809 0 01-3.75-3.81c-.9-1.62-1.35-3.47-1.35-5.55zm31.341 10.8c-1.64 0-3.12-.35-4.44-1.05-1.3-.7-2.33-1.7-3.09-3-.74-1.3-1.11-2.82-1.11-4.56 0-1.72.38-3.23 1.14-4.53.76-1.32 1.8-2.33 3.12-3.03 1.32-.7 2.8-1.05 4.44-1.05 1.64 0 3.12.35 4.44 1.05 1.32.7 2.36 1.71 3.12 3.03.76 1.3 1.14 2.81 1.14 4.53 0 1.72-.39 3.24-1.17 4.56-.76 1.3-1.81 2.3-3.15 3-1.32.7-2.8 1.05-4.44 1.05zm0-4.44c.98 0 1.81-.36 2.49-1.08.7-.72 1.05-1.75 1.05-3.09 0-1.34-.34-2.37-1.02-3.09-.66-.72-1.48-1.08-2.46-1.08-1 0-1.83.36-2.49 1.08-.66.7-.99 1.73-.99 3.09 0 1.34.32 2.37.96 3.09.66.72 1.48 1.08 2.46 1.08zm10.462-4.2c0-1.72.32-3.23.96-4.53.66-1.3 1.55-2.3 2.67-3 1.12-.7 2.37-1.05 3.75-1.05 1.1 0 2.1.23 3 .69.92.46 1.64 1.08 2.16 1.86V1.8h5.13V24h-5.13v-2.4c-.48.8-1.17 1.44-2.07 1.92-.88.48-1.91.72-3.09.72-1.38 0-2.63-.35-3.75-1.05-1.12-.72-2.01-1.73-2.67-3.03-.64-1.32-.96-2.84-.96-4.56zm12.54.03c0-1.28-.36-2.29-1.08-3.03-.7-.74-1.56-1.11-2.58-1.11s-1.89.37-2.61 1.11c-.7.72-1.05 1.72-1.05 3s.35 2.3 1.05 3.06c.72.74 1.59 1.11 2.61 1.11 1.02 0 1.88-.37 2.58-1.11.72-.74 1.08-1.75 1.08-3.03zm24.621-.27c0 .48-.03.98-.09 1.5h-11.61c.08 1.04.41 1.84.99 2.4.6.54 1.33.81 2.19.81 1.28 0 2.17-.54 2.67-1.62h5.46c-.28 1.1-.79 2.09-1.53 2.97-.72.88-1.63 1.57-2.73 2.07-1.1.5-2.33.75-3.69.75-1.64 0-3.1-.35-4.38-1.05-1.28-.7-2.28-1.7-3-3-.72-1.3-1.08-2.82-1.08-4.56 0-1.74.35-3.26 1.05-4.56.72-1.3 1.72-2.3 3-3 1.28-.7 2.75-1.05 4.41-1.05 1.62 0 3.06.34 4.32 1.02 1.26.68 2.24 1.65 2.94 2.91.72 1.26 1.08 2.73 1.08 4.41zm-5.25-1.35c0-.88-.3-1.58-.9-2.1-.6-.52-1.35-.78-2.25-.78-.86 0-1.59.25-2.19.75-.58.5-.94 1.21-1.08 2.13h6.42zm13.086-3.96c.6-.92 1.35-1.64 2.25-2.16.9-.54 1.9-.81 3-.81v5.43h-1.41c-1.28 0-2.24.28-2.88.84-.64.54-.96 1.5-.96 2.88V24h-5.13V7.26h5.13v2.79z" fill="#E7E61A"/></svg></svg>