<?xml version="1.0" encoding="iso-8859-1"?><!DOCTYPE svg PUBLIC "-//W3C//DTD SVG 1.1//EN" "http://www.w3.org/Graphics/SVG/1.1/DTD/svg11.dtd"><svg viewBox="0 0 615 612.008" xmlns="http://www.w3.org/2000/svg" xmlns:xlink="http://www.w3.org/1999/xlink"><style>:root>svg{display:none}:root>svg:target{display:block}</style><svg viewBox="0 0 612.008 612.008" id="home" xmlns="http://www.w3.org/2000/svg"><path d="M609.208 298.575L313.306 3.815a10.201 10.201 0 00-14.433 0L2.961 298.575c-3.988 3.988-3.907 10.353 0 14.393 1.999 2.06 4.61 3.11 7.201 3.131v.041h71.441v284.865c0 2.815 1.142 5.335 2.988 7.171a10.144 10.144 0 007.211 3.009h142.8c5.63 0 10.2-4.569 10.2-10.18V397.556h122.401v203.449c0 5.6 4.569 10.18 10.2 10.18h142.8c5.63 0 10.2-4.569 10.2-10.18V316.14h71.899c2.673.051 5.191-1 6.905-3.162 3.469-4.437 3.99-10.415.001-14.403z"/></svg><svg viewBox="0 0 24 24" id="learning" xmlns="http://www.w3.org/2000/svg"><path d="M14.348 20.181a.5.5 0 00-.385-.181h-3.93a.5.5 0 00-.385.181l-2.1 2.532a.5.5 0 00.409.787h8.079a.5.5 0 00.41-.787zM22.5.5h-21A1.5 1.5 0 000 2v15.5A1.5 1.5 0 001.5 19h21a1.5 1.5 0 001.5-1.5V2A1.5 1.5 0 0022.5.5zM22 15a.5.5 0 01-.5.5h-19A.5.5 0 012 15V3a.5.5 0 01.5-.5h19a.5.5 0 01.5.5z"/><path d="M19.654 6.372l-7-2.779a.5.5 0 00-.369 0l-7 2.779a.5.5 0 00-.316.475c0 .033.024.059.031.09a.689.689 0 00-.031.15v3.663a.75.75 0 001.5 0V7.72L12.3 9.779a.5.5 0 00.166.029.491.491 0 00.166-.029l7-2.47a.5.5 0 00.019-.937z"/><path d="M16.3 9.545L12.469 10.9 8.635 9.545a.5.5 0 00-.666.472v2.5a.5.5 0 00.334.471l3 1.06a3.52 3.52 0 002.328 0l3-1.06a.5.5 0 00.334-.471v-2.5a.5.5 0 00-.666-.472z"/></svg><svg viewBox="0 0 612 612" id="link" xmlns="http://www.w3.org/2000/svg"><path d="M350.179 215.462c-6.693-4.303-14.497-5.47-21.707-3.863a28.67 28.67 0 00-17.939 12.527 28.469 28.469 0 00-3.862 21.611c1.567 7.172 5.871 13.75 12.526 18.016 27.674 17.729 44.179 47.832 44.179 80.497 0 25.551-9.945 49.553-27.999 67.606l-114.75 114.75c-18.073 18.073-42.094 28.019-67.626 28.019-52.728 0-95.625-42.897-95.625-95.625 0-25.551 9.945-49.553 27.999-67.606l54.43-54.449c5.737-5.737 8.53-13.292 8.415-20.808-.134-7.172-2.926-14.287-8.415-19.757a28.605 28.605 0 00-20.272-8.415c-7.344 0-14.688 2.792-20.272 8.415l-54.43 54.449C15.912 379.708 0 418.13 0 459c0 84.36 68.64 153 153 153 40.87 0 79.292-15.912 108.19-44.829l114.75-114.75c28.897-28.859 44.81-67.301 44.81-108.171 0-52.307-26.373-100.444-70.571-128.788zM459 0c-40.87 0-79.292 15.912-108.19 44.829l-114.75 114.75c-28.898 28.859-44.81 67.301-44.81 108.152 0 52.307 26.374 100.463 70.571 128.807a28.605 28.605 0 0021.707 3.844 28.572 28.572 0 0017.939-12.508c4.284-6.693 5.451-14.458 3.863-21.63-1.568-7.172-5.871-13.751-12.527-17.997-27.655-17.748-44.179-47.851-44.179-80.516 0-25.551 9.945-49.553 27.999-67.607l114.75-114.75C409.447 67.32 433.468 57.375 459 57.375c52.728 0 95.625 42.897 95.625 95.606 0 25.551-9.945 49.553-27.999 67.607l-54.43 54.43c-5.737 5.737-8.53 13.292-8.415 20.808.134 7.172 2.926 14.287 8.415 19.756 5.604 5.604 12.947 8.396 20.292 8.396 7.344 0 14.688-2.792 20.272-8.396l54.43-54.449C596.088 232.292 612 193.851 612 152.981 612 68.64 543.36 0 459 0z"/></svg><svg fill="none" viewBox="0 0 615 146" id="logo" xmlns="http://www.w3.org/2000/svg"><path d="M33.616 126.544c0 1.771-.224 3.381-.672 4.832-.427 1.429-1.088 2.667-1.984 3.712-.875 1.045-2.005 1.845-3.392 2.4-1.365.555-2.976.832-4.832.832-1.856 0-3.477-.277-4.864-.832-1.365-.576-2.496-1.376-3.392-2.4-.875-1.045-1.536-2.293-1.984-3.744-.427-1.451-.64-3.061-.64-4.832 0-2.368.384-4.427 1.152-6.176.79-1.749 1.984-3.104 3.584-4.064 1.621-.981 3.68-1.472 6.176-1.472 2.475 0 4.512.491 6.112 1.472 1.6.96 2.784 2.325 3.552 4.096.79 1.749 1.184 3.808 1.184 6.176zm-16.672 0c0 1.6.203 2.976.608 4.128.405 1.152 1.035 2.037 1.888 2.656.853.619 1.952.928 3.296.928 1.387 0 2.496-.309 3.328-.928.853-.619 1.472-1.504 1.856-2.656.405-1.152.608-2.528.608-4.128 0-2.411-.448-4.299-1.344-5.664-.896-1.365-2.368-2.048-4.416-2.048-1.365 0-2.475.309-3.328.928-.853.619-1.483 1.504-1.888 2.656-.405 1.152-.608 2.528-.608 4.128zm45.696-1.44c0 .939-.298 1.739-.896 2.4-.576.661-1.44 1.088-2.592 1.28v.128c1.216.149 2.187.565 2.912 1.248.747.683 1.12 1.557 1.12 2.624 0 .747-.15 1.44-.448 2.08-.277.64-.725 1.195-1.344 1.664-.618.469-1.418.832-2.4 1.088-.96.256-2.133.384-3.52.384h-8.32v-17.472h8.32c1.366 0 2.582.149 3.648.448 1.088.277 1.942.747 2.56 1.408.64.661.96 1.568.96 2.72zm-4.384 7.424c0-.683-.266-1.173-.8-1.472-.533-.32-1.333-.48-2.4-.48H51.92v4.128h3.232c.896 0 1.632-.16 2.208-.48.598-.341.896-.907.896-1.696zm-.448-7.04c0-.555-.213-.96-.64-1.216-.426-.256-1.056-.384-1.888-.384h-3.36v3.456h2.816c1.003 0 1.76-.139 2.272-.416.534-.299.8-.779.8-1.44zm16.67-5.28c1.62 0 3.007.309 4.16.928a6.484 6.484 0 012.72 2.688c.64 1.173.96 2.613.96 4.32v2.304H71.052c.043 1.344.438 2.4 1.184 3.168.768.768 1.824 1.152 3.168 1.152 1.13 0 2.155-.107 3.072-.32a15.62 15.62 0 002.848-1.056v3.68c-.853.427-1.76.736-2.72.928-.938.213-2.08.32-3.424.32-1.75 0-3.296-.32-4.64-.96-1.344-.661-2.4-1.653-3.168-2.976-.768-1.323-1.152-2.987-1.152-4.992 0-2.048.342-3.744 1.024-5.088.704-1.365 1.675-2.389 2.912-3.072 1.238-.683 2.678-1.024 4.32-1.024zm.031 3.392c-.917 0-1.685.299-2.304.896-.597.597-.95 1.525-1.056 2.784h6.688c0-.704-.128-1.333-.384-1.888a2.856 2.856 0 00-1.088-1.312c-.49-.32-1.11-.48-1.856-.48zm10.618 3.936c0-2.581.32-4.768.96-6.56.64-1.813 1.654-3.253 3.04-4.32 1.387-1.088 3.2-1.824 5.44-2.208a60.08 60.08 0 013.425-.48c1.173-.149 2.378-.299 3.616-.448l.544 4.16c-.534.064-1.12.139-1.76.224a69.62 69.62 0 00-1.953.224 44.86 44.86 0 00-1.855.224c-.598.085-1.142.16-1.633.224-.789.128-1.482.309-2.08.544a3.987 3.987 0 00-1.503.928c-.406.405-.726.96-.96 1.664-.214.683-.353 1.568-.416 2.656h.224a5.971 5.971 0 011.056-1.216c.469-.405 1.045-.747 1.727-1.024.683-.277 1.462-.416 2.337-.416 1.386 0 2.591.288 3.615.864 1.025.576 1.814 1.429 2.368 2.56.555 1.131.833 2.539.833 4.224 0 1.984-.363 3.637-1.088 4.96-.726 1.323-1.728 2.325-3.008 3.008-1.28.661-2.763.992-4.448.992-1.28 0-2.443-.235-3.489-.704a7.27 7.27 0 01-2.688-2.08c-.746-.917-1.322-2.048-1.727-3.392-.384-1.344-.576-2.88-.576-4.608zm8.769 6.912c.682 0 1.269-.149 1.76-.448.511-.299.906-.789 1.183-1.472.3-.683.448-1.6.448-2.752 0-1.387-.234-2.485-.704-3.296-.448-.832-1.237-1.248-2.367-1.248a3.81 3.81 0 00-1.92.512 6.08 6.08 0 00-1.473 1.12c-.405.405-.682.757-.831 1.056 0 .832.063 1.643.191 2.432.128.768.342 1.461.64 2.08.3.619.694 1.109 1.184 1.472.512.363 1.142.544 1.888.544zm20.306-7.616v3.728h-9.424v-3.728h9.424zm13.397-6.624c1.963 0 3.552.768 4.768 2.304 1.216 1.515 1.824 3.755 1.824 6.72 0 1.984-.288 3.659-.864 5.024-.576 1.344-1.365 2.357-2.368 3.04-1.003.683-2.165 1.024-3.488 1.024-.832 0-1.557-.107-2.176-.32a5.285 5.285 0 01-1.536-.832 7.727 7.727 0 01-1.12-1.088h-.256c.085.405.149.832.192 1.28.043.427.064.853.064 1.28v7.04h-4.768v-25.152h3.872l.672 2.272h.224c.32-.469.704-.896 1.152-1.28a5.006 5.006 0 011.6-.96c.64-.235 1.376-.352 2.208-.352zm-1.536 3.808c-.832 0-1.493.171-1.984.512-.491.341-.853.864-1.088 1.568-.213.683-.331 1.547-.352 2.592v.512c0 1.131.107 2.091.32 2.88.213.768.576 1.355 1.088 1.76.512.405 1.205.608 2.08.608.725 0 1.323-.203 1.792-.608.469-.405.821-1.003 1.056-1.792.235-.789.352-1.749.352-2.88 0-1.707-.267-2.987-.8-3.84-.512-.875-1.333-1.312-2.464-1.312zm19.226-3.84c2.347 0 4.139.512 5.376 1.536 1.259 1.003 1.888 2.549 1.888 4.64V138h-3.328l-.928-2.368h-.128a8.708 8.708 0 01-1.536 1.536 4.68 4.68 0 01-1.792.864c-.661.192-1.483.288-2.464.288-1.024 0-1.952-.192-2.784-.576a4.51 4.51 0 01-1.92-1.824c-.469-.832-.704-1.877-.704-3.136 0-1.856.651-3.221 1.952-4.096 1.301-.896 3.253-1.387 5.856-1.472l3.04-.096v-.768c0-.917-.245-1.589-.736-2.016-.469-.427-1.131-.64-1.984-.64s-1.685.128-2.496.384c-.811.235-1.621.533-2.432.896l-1.568-3.232a13.706 13.706 0 013.104-1.152 15.28 15.28 0 013.584-.416zm.672 9.792c-1.536.043-2.603.32-3.2.832s-.896 1.184-.896 2.016c0 .725.213 1.248.64 1.568.427.299.981.448 1.664.448 1.024 0 1.888-.299 2.592-.896.704-.619 1.056-1.483 1.056-2.592v-1.44l-1.856.064zm17.841-9.76c1.258 0 2.432.171 3.52.512 1.109.32 1.994.821 2.656 1.504.682.683 1.024 1.557 1.024 2.624 0 1.045-.32 1.877-.96 2.496-.619.619-1.462 1.067-2.528 1.344v.16a8.078 8.078 0 012.016.736 3.492 3.492 0 011.408 1.248c.362.512.544 1.205.544 2.08 0 .96-.31 1.856-.928 2.688-.598.811-1.536 1.472-2.816 1.984-1.259.491-2.88.736-4.864.736-.939 0-1.824-.043-2.656-.128a20.412 20.412 0 01-2.272-.352 10.32 10.32 0 01-1.792-.608v-3.936c.725.341 1.61.651 2.656.928 1.066.277 2.197.416 3.392.416.874 0 1.653-.064 2.336-.192.704-.128 1.258-.341 1.664-.64.426-.299.64-.693.64-1.184 0-.469-.182-.853-.544-1.152-.363-.32-.907-.555-1.632-.704-.726-.149-1.654-.224-2.784-.224h-1.856v-3.296h1.76c1.578 0 2.794-.128 3.648-.384.874-.256 1.312-.736 1.312-1.44 0-.555-.278-.971-.832-1.248-.555-.299-1.462-.448-2.72-.448-.832 0-1.739.096-2.72.288-.982.192-1.91.469-2.784.832l-1.408-3.328a19.984 19.984 0 013.296-.928c1.194-.256 2.602-.384 4.224-.384zm21.11 0c1.962 0 3.552.768 4.768 2.304 1.216 1.515 1.823 3.755 1.823 6.72 0 1.984-.287 3.659-.863 5.024-.576 1.344-1.366 2.357-2.368 3.04-1.003.683-2.166 1.024-3.488 1.024-.832 0-1.558-.107-2.176-.32a5.26 5.26 0 01-1.536-.832 7.727 7.727 0 01-1.12-1.088h-.256a13.06 13.06 0 01.256 2.56v7.04h-4.768v-25.152h3.872l.672 2.272h.224c.32-.469.704-.896 1.152-1.28a5.006 5.006 0 011.6-.96c.64-.235 1.376-.352 2.208-.352zm-1.536 3.808c-.832 0-1.494.171-1.984.512-.491.341-.854.864-1.088 1.568-.214.683-.331 1.547-.352 2.592v.512c0 1.131.106 2.091.32 2.88.213.768.576 1.355 1.088 1.76.512.405 1.205.608 2.08.608.725 0 1.322-.203 1.792-.608.469-.405.821-1.003 1.056-1.792.234-.789.352-1.749.352-2.88 0-1.707-.267-2.987-.8-3.84-.512-.875-1.334-1.312-2.464-1.312zm19.226-3.84c2.346 0 4.138.512 5.376 1.536 1.258 1.003 1.888 2.549 1.888 4.64V138h-3.328l-.928-2.368h-.128a8.708 8.708 0 01-1.536 1.536 4.687 4.687 0 01-1.792.864c-.662.192-1.483.288-2.464.288-1.024 0-1.952-.192-2.784-.576a4.51 4.51 0 01-1.92-1.824c-.47-.832-.704-1.877-.704-3.136 0-1.856.65-3.221 1.952-4.096 1.301-.896 3.253-1.387 5.856-1.472l3.04-.096v-.768c0-.917-.246-1.589-.736-2.016-.47-.427-1.131-.64-1.984-.64-.854 0-1.686.128-2.496.384-.811.235-1.622.533-2.432.896l-1.568-3.232a13.688 13.688 0 013.104-1.152 15.274 15.274 0 013.584-.416zm.672 9.792c-1.536.043-2.603.32-3.2.832-.598.512-.896 1.184-.896 2.016 0 .725.213 1.248.64 1.568.426.299.981.448 1.664.448 1.024 0 1.888-.299 2.592-.896.704-.619 1.056-1.483 1.056-2.592v-1.44l-1.856.064zm10.416-2.432c0-2.581.32-4.768.96-6.56.64-1.813 1.653-3.253 3.04-4.32 1.387-1.088 3.2-1.824 5.44-2.208a60.117 60.117 0 013.424-.48c1.173-.149 2.379-.299 3.616-.448l.544 4.16c-.533.064-1.12.139-1.76.224-.64.064-1.291.139-1.952.224-.64.064-1.259.139-1.856.224-.597.085-1.141.16-1.632.224-.789.128-1.483.309-2.08.544a3.987 3.987 0 00-1.504.928c-.405.405-.725.96-.96 1.664-.213.683-.352 1.568-.416 2.656h.224a5.971 5.971 0 011.056-1.216c.469-.405 1.045-.747 1.728-1.024s1.461-.416 2.336-.416c1.387 0 2.592.288 3.616.864 1.024.576 1.813 1.429 2.368 2.56.555 1.131.832 2.539.832 4.224 0 1.984-.363 3.637-1.088 4.96-.725 1.323-1.728 2.325-3.008 3.008-1.28.661-2.763.992-4.448.992-1.28 0-2.443-.235-3.488-.704a7.275 7.275 0 01-2.688-2.08c-.747-.917-1.323-2.048-1.728-3.392-.384-1.344-.576-2.88-.576-4.608zm8.768 6.912c.683 0 1.269-.149 1.76-.448.512-.299.907-.789 1.184-1.472.299-.683.448-1.6.448-2.752 0-1.387-.235-2.485-.704-3.296-.448-.832-1.237-1.248-2.368-1.248-.683 0-1.323.171-1.92.512a6.074 6.074 0 00-1.472 1.12c-.405.405-.683.757-.832 1.056 0 .832.064 1.643.192 2.432.128.768.341 1.461.64 2.08s.693 1.109 1.184 1.472c.512.363 1.141.544 1.888.544zm28.066-5.216c0 1.451-.202 2.741-.608 3.872-.384 1.131-.949 2.091-1.696 2.88a7.14 7.14 0 01-2.656 1.76c-1.045.384-2.229.576-3.552.576-1.216 0-2.346-.192-3.392-.576a7.513 7.513 0 01-2.656-1.76c-.746-.789-1.333-1.749-1.76-2.88-.405-1.131-.608-2.421-.608-3.872 0-1.941.342-3.573 1.024-4.896.683-1.344 1.664-2.368 2.944-3.072 1.28-.704 2.795-1.056 4.544-1.056 1.643 0 3.094.352 4.352 1.056 1.259.704 2.251 1.728 2.976 3.072.726 1.323 1.088 2.955 1.088 4.896zm-12.064 0c0 1.152.118 2.123.352 2.912.256.768.651 1.355 1.184 1.76.534.384 1.227.576 2.08.576.854 0 1.536-.192 2.048-.576.534-.405.918-.992 1.152-1.76.256-.789.384-1.76.384-2.912s-.128-2.112-.384-2.88c-.234-.768-.618-1.344-1.152-1.728-.533-.384-1.226-.576-2.08-.576-1.258 0-2.176.437-2.752 1.312-.554.853-.832 2.144-.832 3.872zm30.156-5.12h-5.728V138h-4.768v-13.888h-5.728v-3.584h16.224v3.584zm14.68-3.584h5.248l-6.912 8.384 7.52 9.088h-5.408l-7.136-8.864V138h-4.768v-17.472h4.768v8.48l6.688-8.48zm14.931-.32c1.622 0 3.008.309 4.16.928a6.48 6.48 0 012.72 2.688c.64 1.173.96 2.613.96 4.32v2.304h-11.264c.043 1.344.438 2.4 1.184 3.168.768.768 1.824 1.152 3.168 1.152 1.131 0 2.155-.107 3.072-.32a15.59 15.59 0 002.848-1.056v3.68c-.853.427-1.76.736-2.72.928-.938.213-2.08.32-3.424.32-1.749 0-3.296-.32-4.64-.96-1.344-.661-2.4-1.653-3.168-2.976-.768-1.323-1.152-2.987-1.152-4.992 0-2.048.342-3.744 1.024-5.088.704-1.365 1.675-2.389 2.912-3.072 1.238-.683 2.678-1.024 4.32-1.024zm.032 3.392c-.917 0-1.685.299-2.304.896-.597.597-.949 1.525-1.056 2.784h6.688c0-.704-.128-1.333-.384-1.888a2.849 2.849 0 00-1.088-1.312c-.49-.32-1.109-.48-1.856-.48zm36.734-3.072V138h-4.768v-13.888h-6.336V138h-4.768v-17.472h15.872zm14.731-.32c1.963 0 3.552.768 4.768 2.304 1.216 1.515 1.824 3.755 1.824 6.72 0 1.984-.288 3.659-.864 5.024-.576 1.344-1.365 2.357-2.368 3.04-1.003.683-2.165 1.024-3.488 1.024-.832 0-1.557-.107-2.176-.32a5.285 5.285 0 01-1.536-.832 7.727 7.727 0 01-1.12-1.088h-.256c.085.405.149.832.192 1.28.043.427.064.853.064 1.28v7.04h-4.768v-25.152h3.872l.672 2.272h.224c.32-.469.704-.896 1.152-1.28a5.006 5.006 0 011.6-.96c.64-.235 1.376-.352 2.208-.352zm-1.536 3.808c-.832 0-1.493.171-1.984.512-.491.341-.853.864-1.088 1.568-.213.683-.331 1.547-.352 2.592v.512c0 1.131.107 2.091.32 2.88.213.768.576 1.355 1.088 1.76.512.405 1.205.608 2.08.608.725 0 1.323-.203 1.792-.608.469-.405.821-1.003 1.056-1.792.235-.789.352-1.749.352-2.88 0-1.707-.267-2.987-.8-3.84-.512-.875-1.333-1.312-2.464-1.312zm27.93 5.216c0 1.451-.203 2.741-.608 3.872-.384 1.131-.949 2.091-1.696 2.88-.725.768-1.611 1.355-2.656 1.76-1.045.384-2.229.576-3.552.576-1.216 0-2.347-.192-3.392-.576a7.513 7.513 0 01-2.656-1.76c-.747-.789-1.333-1.749-1.76-2.88-.405-1.131-.608-2.421-.608-3.872 0-1.941.341-3.573 1.024-4.896.683-1.344 1.664-2.368 2.944-3.072 1.28-.704 2.795-1.056 4.544-1.056 1.643 0 3.093.352 4.352 1.056 1.259.704 2.251 1.728 2.976 3.072.725 1.323 1.088 2.955 1.088 4.896zm-12.064 0c0 1.152.117 2.123.352 2.912.256.768.651 1.355 1.184 1.76.533.384 1.227.576 2.08.576s1.536-.192 2.048-.576c.533-.405.917-.992 1.152-1.76.256-.789.384-1.76.384-2.912s-.128-2.112-.384-2.88c-.235-.768-.619-1.344-1.152-1.728-.533-.384-1.227-.576-2.08-.576-1.259 0-2.176.437-2.752 1.312-.555.853-.832 2.144-.832 3.872zm23.109 9.088c-1.728 0-3.2-.309-4.416-.928-1.216-.64-2.144-1.621-2.784-2.944-.64-1.323-.96-3.019-.96-5.088 0-2.133.362-3.872 1.088-5.216.725-1.344 1.728-2.336 3.008-2.976 1.301-.64 2.794-.96 4.48-.96 1.194 0 2.229.117 3.104.352.896.235 1.674.512 2.336.832l-1.408 3.68a22.902 22.902 0 00-2.112-.736 6.652 6.652 0 00-1.92-.288c-.832 0-1.526.203-2.08.608-.555.384-.971.971-1.248 1.76-.256.768-.384 1.739-.384 2.912 0 1.152.138 2.112.416 2.88.298.747.725 1.312 1.279 1.696.555.363 1.227.544 2.017.544 1.002 0 1.888-.128 2.656-.384a11.007 11.007 0 002.24-1.12v4.064c-.726.469-1.494.8-2.304.992-.79.213-1.792.32-3.008.32zm23.797-14.208h-5.728V138h-4.768v-13.888h-5.728v-3.584h16.224v3.584zM414.184 138v-17.472h4.768v6.752h2.304c1.792 0 3.264.192 4.416.576 1.152.363 2.005.928 2.56 1.696.576.768.864 1.728.864 2.88 0 1.131-.267 2.112-.8 2.944-.512.832-1.334 1.483-2.464 1.952-1.11.448-2.582.672-4.416.672h-7.232zm6.976-3.296c.938 0 1.696-.171 2.272-.512.597-.341.896-.907.896-1.696 0-.683-.278-1.173-.832-1.472-.534-.299-1.334-.448-2.401-.448h-2.143v4.128h2.208zM431.624 138v-17.472h4.768V138h-4.768zm31.763-17.472V138h-4.448v-8.576c0-.853.011-1.685.032-2.496.043-.811.096-1.557.16-2.24h-.096L454.203 138h-3.584l-4.896-13.344h-.128c.085.704.139 1.461.16 2.272.043.789.064 1.664.064 2.624V138h-4.448v-17.472h6.752l4.352 11.84 4.416-11.84h6.496zM480.215 138h-5.153l4.704-6.912a7.317 7.317 0 01-1.695-1.024 5.08 5.08 0 01-1.248-1.696c-.32-.683-.48-1.493-.48-2.432 0-1.749.661-3.083 1.984-4 1.322-.939 3.018-1.408 5.088-1.408h8.128V138h-4.768v-6.496h-2.624L480.215 138zm.8-12.032c0 .725.288 1.301.864 1.728.576.405 1.322.608 2.24.608h2.656v-4.416h-3.265c-.853 0-1.482.213-1.887.64a1.965 1.965 0 00-.608 1.44zm21.88-5.76c1.259 0 2.432.171 3.52.512 1.11.32 1.995.821 2.656 1.504.683.683 1.024 1.557 1.024 2.624 0 1.045-.32 1.877-.96 2.496-.618.619-1.461 1.067-2.528 1.344v.16a8.05 8.05 0 012.016.736 3.479 3.479 0 011.408 1.248c.363.512.544 1.205.544 2.08 0 .96-.309 1.856-.928 2.688-.597.811-1.536 1.472-2.816 1.984-1.258.491-2.88.736-4.864.736-.938 0-1.824-.043-2.656-.128a20.45 20.45 0 01-2.272-.352 10.349 10.349 0 01-1.792-.608v-3.936c.726.341 1.611.651 2.656.928 1.067.277 2.198.416 3.392.416.875 0 1.654-.064 2.336-.192.704-.128 1.259-.341 1.664-.64.427-.299.64-.693.64-1.184 0-.469-.181-.853-.544-1.152-.362-.32-.906-.555-1.632-.704-.725-.149-1.653-.224-2.784-.224h-1.856v-3.296h1.76c1.579 0 2.795-.128 3.648-.384.875-.256 1.312-.736 1.312-1.44 0-.555-.277-.971-.832-1.248-.554-.299-1.461-.448-2.72-.448-.832 0-1.738.096-2.72.288-.981.192-1.909.469-2.784.832l-1.408-3.328a20.04 20.04 0 013.296-.928c1.195-.256 2.603-.384 4.224-.384zM514.277 138v-17.472h4.768v6.752h2.304c1.792 0 3.264.192 4.416.576 1.152.363 2.006.928 2.56 1.696.576.768.864 1.728.864 2.88 0 1.131-.266 2.112-.8 2.944-.512.832-1.333 1.483-2.464 1.952-1.109.448-2.581.672-4.416.672h-7.232zm6.976-3.296c.939 0 1.696-.171 2.272-.512.598-.341.896-.907.896-1.696 0-.683-.277-1.173-.832-1.472-.533-.299-1.333-.448-2.4-.448h-2.144v4.128h2.208zM531.717 138v-17.472h4.768V138h-4.768zm21.204-17.472h5.248l-6.912 8.384 7.52 9.088h-5.408l-7.136-8.864V138h-4.768v-17.472h4.768v8.48l6.688-8.48zm23.603 8.704c0 1.451-.202 2.741-.608 3.872-.384 1.131-.949 2.091-1.696 2.88a7.14 7.14 0 01-2.656 1.76c-1.045.384-2.229.576-3.552.576-1.216 0-2.346-.192-3.392-.576a7.513 7.513 0 01-2.656-1.76c-.746-.789-1.333-1.749-1.76-2.88-.405-1.131-.608-2.421-.608-3.872 0-1.941.342-3.573 1.024-4.896.683-1.344 1.664-2.368 2.944-3.072 1.28-.704 2.795-1.056 4.544-1.056 1.643 0 3.094.352 4.352 1.056 1.259.704 2.251 1.728 2.976 3.072.726 1.323 1.088 2.955 1.088 4.896zm-12.064 0c0 1.152.118 2.123.352 2.912.256.768.651 1.355 1.184 1.76.534.384 1.227.576 2.08.576.854 0 1.536-.192 2.048-.576.534-.405.918-.992 1.152-1.76.256-.789.384-1.76.384-2.912s-.128-2.112-.384-2.88c-.234-.768-.618-1.344-1.152-1.728-.533-.384-1.226-.576-2.08-.576-1.258 0-2.176.437-2.752 1.312-.554.853-.832 2.144-.832 3.872zm38.021-8.704V138h-4.448v-8.576c0-.853.01-1.685.032-2.496.042-.811.096-1.557.16-2.24h-.096L593.297 138h-3.584l-4.896-13.344h-.128c.085.704.138 1.461.16 2.272.042.789.064 1.664.064 2.624V138h-4.448v-17.472h6.752l4.352 11.84 4.416-11.84h6.496z" fill="#fff"/><path fill-rule="evenodd" clip-rule="evenodd" d="M8.67 94.864L0 7.296h51.359l-1.673 16.896h37.392l-.126 2.684c4.293-2.953 9.11-4.476 14.341-4.476 7.601 0 14.057 3.29 19.159 9.3a29.924 29.924 0 014.763 7.564l1.391-15.072h5.951c.666-6.43 2.709-11.988 6.532-16.256l.004-.005C144.228 2.213 152.272 0 161.758 0c4.403 0 8.657.623 12.742 1.888l3.121.966 2.603 22.946-3.476-.927 1.563 16.931c1.793-4.16 4.387-7.728 7.878-10.589l.002-.002c7.35-6.038 16.852-8.813 28.002-8.813 11.134 0 20.603 2.768 27.876 8.815 7.789 6.313 11.172 16.082 11.172 28.057 0 11.996-3.394 21.792-11.17 28.183l-.005.004c-7.276 5.963-16.744 8.685-27.873 8.685-11.134 0-20.627-2.724-27.975-8.663l-.03-.024-.028-.024c-7.678-6.398-11.015-16.186-11.015-28.161 0-2.953.203-5.773.624-8.44h-5.897l-1.92 44.032h-33.125l-1.92-44.032h-4.879c.103 1.251.154 2.529.154 3.832 0 8.346-1.015 20.332-2.984 35.83l-.556 4.37H93.264l-2.965-33.207v-.01c-.406-4.324-1.156-6.948-1.913-8.344-.273-.503-.482-.726-.571-.807-.364.005-.502.083-.56.119-.08.05-.327.228-.648.796-.716 1.267-1.403 3.767-1.564 8.08v.014l-1.048 33.359h-33.18l-2.513-56.695-5.613 56.695H8.67zM80.046 61.32c.34-9.216 2.944-13.824 7.807-13.824 4.097 0 6.571 4.565 7.425 13.696l2.56 28.672h22.4c1.962-15.445 2.944-27.179 2.944-35.2 0-8.107-2.176-14.677-6.529-19.712-4.266-5.035-9.386-7.552-15.36-7.552-4.608 0-8.789 1.45-12.544 4.352a24.654 24.654 0 00-2.112 1.828 36.294 36.294 0 00-2.368 2.524c-1.535 1.792-2.517 3.115-2.944 3.968l.513-10.88H52.91l2.688 60.672H79.15l.895-28.544zm57.647-15.488l1.921 44.032h23.552l1.92-44.032h8.576l-1.536-16.64h-7.808v-1.664c0-1.24.09-2.353.27-3.336.598-3.256 2.185-5.098 4.762-5.527a7.568 7.568 0 011.24-.097c1.28 0 2.56.17 3.84.512l-1.409-12.416C169.438 5.554 165.683 5 161.758 5c-8.875 0-15.19 2.09-18.944 6.272-3.67 4.096-5.504 10.07-5.504 17.92h-6.145l-1.535 16.64h8.063zm32.044-21.64h4.457l-1.053-.28a9.842 9.842 0 00-2.551-.344c-.227 0-.379.02-.471.039a.913.913 0 00-.096.025l-.011.004a.309.309 0 00-.03.04c-.061.086-.151.25-.245.516zm69.159 10.888c-6.143-5.12-14.378-7.68-24.703-7.68-10.326 0-18.603 2.56-24.832 7.68-6.144 5.035-9.216 13.099-9.216 24.192s3.072 19.2 9.216 24.32c6.229 5.035 14.506 7.552 24.832 7.552 10.325 0 18.56-2.517 24.703-7.552 6.23-5.12 9.345-13.227 9.345-24.32s-3.115-19.157-9.345-24.192zM38.16 89.864H13.2L5.52 12.296h40.32l-7.68 77.568zm175.379-43.413l-.008.021c-.718 2.036-1.25 6.114-1.25 12.8 0 6.647.525 10.792 1.258 12.948.224.63.426.9.503.988a1.24 1.24 0 00.301 0c.077-.088.279-.357.503-.988.733-2.156 1.259-6.3 1.259-12.948 0-6.686-.533-10.764-1.251-12.8l-.008-.021-.007-.021c-.238-.694-.456-.996-.543-1.098a1.221 1.221 0 00-.207 0c-.087.102-.305.404-.543 1.098l-.007.02zm6.029 27.413c-1.023 2.901-2.815 4.352-5.375 4.352s-4.353-1.45-5.376-4.352c-1.024-2.987-1.536-7.85-1.536-14.592 0-6.741.512-11.563 1.536-14.464 1.023-2.987 2.816-4.48 5.376-4.48 2.56 0 4.352 1.493 5.375 4.48 1.025 2.901 1.537 7.723 1.537 14.464 0 6.741-.512 11.605-1.537 14.592z" fill="#E7E61A"/><path fill-rule="evenodd" clip-rule="evenodd" d="M335.181 17.408l-9.108 19.3-4.339-1.676c-3.113-1.203-6.632-1.84-10.614-1.84-5.331 0-8.481 1.514-10.418 3.765-2.061 2.395-3.526 6.514-3.526 13.251 0 6.276 1.499 10.521 3.891 13.357 2.626 2.926 5.476 4.171 8.773 4.171 4.236 0 8.1-.87 11.66-2.58l4.355-2.09 5.082 9.713c-1.394-4.338-2.047-9.208-2.047-14.507 0-11.967 3.334-21.738 11.044-28.057 7.35-6.04 16.853-8.815 28.004-8.815 11.134 0 20.603 2.768 27.877 8.815 4.37 3.542 7.353 8.172 9.129 13.67a37.48 37.48 0 011.204-3.773l.015-.04.017-.041c1.931-4.828 4.602-8.856 8.22-11.683l.004-.003c5.876-4.582 12.538-6.945 19.842-6.945 3.572 0 6.965.707 10.11 2.17L443.524.793h39.582l-1.912 45.973c.965-3.57 2.477-6.88 4.571-9.89 7.171-10.491 18.266-15.475 32.277-15.475 10.286 0 18.959 2.057 25.294 6.905 3.223 2.422 5.634 5.343 7.241 8.69l-.873-13.803h33.976l1.476 3.837c4.254-3.624 9.281-5.629 15.058-5.629 4.01 0 7.781.987 11.215 2.98l2.926 1.7-4.735 32.36-6.641-4.648c-2.552-1.786-5.386-2.68-8.653-2.68-1.359 0-2.113.28-2.532.538-.377.233-.794.634-1.168 1.494-.689 1.735-1.11 3.318-1.31 4.758l-2.777 35.962h-32.363l-2.419-38.228c-1.33 3.689-3.716 6.892-7.088 9.523l-.011.008a22.622 22.622 0 01-2.177 1.492l10.233 12.379-2.687 3.19c-1.62 1.924-3.506 3.702-5.632 5.344l-.057.045-.059.043c-2.434 1.77-5.93 3.409-10.145 4.99l-.043.016-.044.015c-4.692 1.662-9.744 2.463-15.109 2.463-10.671 0-19.962-3.098-27.545-9.5l-.027-.022-.026-.023c-6.088-5.286-9.617-12.352-10.897-20.793l-1.209 29.058h-27.856l-1.026-3.92c-4.71 3.325-10.137 5.066-16.205 5.072-8.889.095-16.427-3.315-22.245-10.052-3.143-3.638-5.344-8.027-6.719-13.048-1.744 5.858-4.799 10.785-9.366 14.539l-.006.004c-7.276 5.963-16.743 8.685-27.873 8.685-11.134 0-20.626-2.724-27.975-8.663l-.029-.024-.029-.024a27.237 27.237 0 01-4.097-4.24l-3.429 2.512c-9.576 7.017-20.925 10.439-33.803 10.439-12.991 0-24.038-3.838-32.7-11.819l-.01-.01-.011-.009C257.071 75.121 253 63.611 253 49.568c0-14.083 4.004-25.555 12.763-33.515 8.537-7.845 19.693-11.549 32.941-11.549 5.547 0 11.386 1.003 17.485 2.914 6.175 1.907 11.463 4.388 15.708 7.547l3.284 2.443zm-20.477-5.216c-5.717-1.792-11.051-2.688-16-2.688-12.288 0-22.144 3.413-29.568 10.24C261.712 26.485 258 36.427 258 49.568c0 13.056 3.755 23.083 11.264 30.08 7.595 6.997 17.365 10.496 29.312 10.496 11.947 0 22.229-3.157 30.848-9.472l-5.76-11.008c-4.267 2.048-8.875 3.072-13.824 3.072-4.864 0-9.045-1.963-12.544-5.888-3.413-4.01-5.12-9.557-5.12-16.64 0-14.677 6.315-22.016 18.944-22.016 4.523 0 8.661.725 12.416 2.176l5.376-11.392c-3.669-2.73-8.405-4.992-14.208-6.784zm134.277 72.51c1.436-1.187 2.796-2.573 4.081-4.158l2.176 8.32h19.2l3.456-83.072H448.71l1.024 28.032-1.536-1.792c-.762-.953-1.974-1.882-3.635-2.788-.57-.31-1.193-.619-1.869-.924-2.56-1.28-5.376-1.92-8.448-1.92-6.144 0-11.733 1.963-16.768 5.888-2.731 2.133-4.949 5.333-6.656 9.6-1.621 4.267-2.432 9.344-2.432 15.232 0 10.752 2.432 18.944 7.296 24.576 4.864 5.632 11.008 8.405 18.432 8.32 5.625 0 10.579-1.771 14.863-5.314zm-.143-16.318c-1.28 2.73-3.157 4.096-5.632 4.096-2.475 0-4.352-.939-5.632-2.816-1.28-1.877-2.048-3.67-2.304-5.376a36.231 36.231 0 01-.384-5.376c0-10.24 2.517-15.36 7.552-15.36 5.632 0 8.448 5.12 8.448 15.36 0 3.499-.683 6.656-2.048 9.472zm88.339-4.636a21.064 21.064 0 002.074-.996c.839-.464 1.62-.976 2.343-1.536 4.267-3.328 6.4-7.637 6.4-12.928 0-6.827-2.56-12.16-7.68-16-5.12-3.925-12.544-5.888-22.272-5.888-12.715 0-22.101 4.437-28.16 13.312-3.328 4.779-4.992 10.581-4.992 17.408 0 10.837 3.243 19.072 9.728 24.704 6.571 5.547 14.677 8.32 24.32 8.32 4.864 0 9.344-.725 13.44-2.176 4.096-1.536 7.083-2.987 8.96-4.352 1.877-1.45 3.499-2.987 4.864-4.608l-7.936-9.6a19.07 19.07 0 01-.624.516c-3.545 2.813-7.774 4.22-12.688 4.22-3.157 0-5.888-.725-8.192-2.176a8.941 8.941 0 01-1.613-1.426 8.96 8.96 0 01-1.478-2.31l-.024-.055c-.409-.933-.694-1.973-.853-3.121l1.408.256c1.226.237 2.526.42 3.899.547 1.589.147 3.276.221 5.061.221 5.613 0 10.284-.777 14.015-2.331zm47.165-6.372c.256-1.963.811-4.01 1.664-6.144 1.451-3.413 4.224-5.12 8.32-5.12 2.411 0 4.685.381 6.824 1.144 1.646.587 3.211 1.4 4.696 2.44l3.072-20.992c-2.645-1.536-5.547-2.304-8.704-2.304-4.972 0-9.349 1.88-13.13 5.642-1.281 1.274-2.494 2.764-3.638 4.47l-3.2-8.32H555.03l3.84 60.672h23.04l2.432-31.488zm-191.7-23.296c-6.144-5.12-14.379-7.68-24.704-7.68-10.325 0-18.603 2.56-24.832 7.68-6.144 5.035-9.216 13.099-9.216 24.192s3.072 19.2 9.216 24.32c6.229 5.035 14.507 7.552 24.832 7.552 10.325 0 18.56-2.517 24.704-7.552 6.229-5.12 9.344-13.227 9.344-24.32s-3.115-19.157-9.344-24.192zm-25.358 11.37l-.007.022c-.719 2.036-1.251 6.114-1.251 12.8 0 6.648.525 10.793 1.258 12.949.225.63.426.9.504.987a1.22 1.22 0 00.3 0c.078-.088.279-.357.504-.987.733-2.156 1.258-6.301 1.258-12.949 0-6.686-.532-10.764-1.251-12.8l-.007-.021-.008-.021c-.238-.694-.455-.996-.543-1.098a1.184 1.184 0 00-.206 0c-.088.102-.305.404-.543 1.098l-.008.02zm6.03 27.414c-1.024 2.901-2.816 4.352-5.376 4.352-2.56 0-4.352-1.45-5.376-4.352-1.024-2.987-1.536-7.85-1.536-14.592 0-6.741.512-11.563 1.536-14.464 1.024-2.987 2.816-4.48 5.376-4.48 2.56 0 4.352 1.493 5.376 4.48 1.024 2.901 1.536 7.723 1.536 14.464 0 6.741-.512 11.605-1.536 14.592zm71.011-6.632l.014-.03c.999-2.059 1.547-4.457 1.547-7.29 0-4.825-.692-7.653-1.493-9.11-.359-.654-.671-.905-.851-1.014-.169-.103-.479-.236-1.104-.236-.355 0-.461.073-.495.096l-.003.002c-.067.046-.338.255-.679.948-.75 1.526-1.375 4.443-1.375 9.314 0 1.65.113 3.194.329 4.634.115.766.505 1.857 1.49 3.301.255.374.506.633 1.501.633.154 0 .227-.02.247-.027a.237.237 0 00.076-.04c.082-.06.396-.328.782-1.151l.014-.03zm79.718-19.49l-.06-.052c-.088-.076-.565-.442-2.101-.442-.651 0-1.609.238-2.953 1.568l-.061.066c.268.01.547.014.838.014 2.6 0 3.852-.448 4.346-.748.105-.07.182-.13.236-.176a1.164 1.164 0 00-.183-.18l-.062-.05zm2.703 4.618c-1.621 1.024-3.968 1.536-7.04 1.536-2.987 0-5.419-.427-7.296-1.28 0-2.816.981-5.248 2.944-7.296 2.048-2.048 4.224-3.072 6.528-3.072 2.304 0 4.096.555 5.376 1.664 1.365 1.11 2.048 2.517 2.048 4.224 0 1.707-.853 3.115-2.56 4.224z" fill="#E7E61A"/></svg><svg viewBox="0 0 512 512" id="money" xmlns="http://www.w3.org/2000/svg"><path d="M256 0C114.625 0 0 114.625 0 256s114.625 256 256 256c141.406 0 256-114.625 256-256S397.406 0 256 0zm69.812 354.844c-12.594 14.125-30.78 22.438-54.562 24.938V416h-30.313v-36.031c-39.656-4.062-64.188-27.125-73.656-69.125l46.875-12.219c4.344 26.406 18.719 39.594 43.125 39.594 11.406 0 19.844-2.812 25.219-8.469s8.062-12.469 8.062-20.469c0-8.281-2.688-14.563-8.062-18.813-5.375-4.28-17.344-9.688-35.875-16.25-16.656-5.78-29.688-11.469-39.063-17.155-9.375-5.625-17-13.531-22.844-23.688-5.844-10.188-8.781-22.063-8.781-35.563 0-17.719 5.25-33.688 15.688-47.875 10.438-14.156 26.875-22.813 49.313-25.969V96h30.313v27.969c33.875 4.063 55.813 23.219 65.781 57.5l-41.75 17.125c-8.156-23.5-20.72-35.25-37.781-35.25-8.563 0-15.438 2.625-20.594 7.875-5.188 5.25-7.781 11.625-7.781 19.094 0 7.625 2.5 13.469 7.5 17.563 4.969 4.063 15.688 9.094 32.063 15.125 18 6.563 32.125 12.781 42.344 18.625 10.25 5.844 18.406 13.938 24.531 24.219 6.094 10.313 9.155 22.345 9.155 36.126 0 21.154-6.313 38.779-18.907 52.873z"/></svg><svg viewBox="0 0 612 612" id="portfolio" xmlns="http://www.w3.org/2000/svg"><path d="M0 539.367c0 30.905 30.6 30.905 30.6 30.905h550.8s30.6 0 30.6-30.905V292.091H390.178v27.401H585.74v224.854H26.983V319.492h195.729v-27.401H0v247.276zM357.353 41.728H254.647s-32.102 0-32.102 34.772v48.682H30.6s-30.6 0-30.6 31.602v107.49h27.818V153h556.363v111.273H612v-107.49c0-31.602-30.6-31.602-30.6-31.602H389.454V76.5c0-34.772-32.101-34.772-32.101-34.772zm5.786 83.454h-112.47v-56.22h112.497v56.22h-.027z"/><path d="M278.432 236.455c-15.495 0-28.068 12.323-28.068 28.068v55.108c0 15.522 12.323 28.097 28.068 28.097h55.108c15.522 0 28.097-12.323 28.097-28.068v-55.136c0-15.495-12.324-28.068-28.069-28.068h-55.136zm55.386 83.454h-55.637v-55.636h55.637v55.636z"/></svg><svg id="question" data-name="Layer 1" viewBox="0 0 64 64" xmlns="http://www.w3.org/2000/svg"><defs><style>.gcls-1{fill:#1d1d1b}</style></defs><path class="gcls-1" d="M47.13 13.72c-2.33-4.25-5.08-7.91-11.29-9.2a17.87 17.87 0 00-15.13 4 13.9 13.9 0 00-5.25 10.12 15.4 15.4 0 002.17 7.92c.83.83 9.08.66 9.71.25s-.13-1.54.71-3.42a5.64 5.64 0 014.87-3.12c1.71.08 2.38 1 3.13 2.83s-.34 3.5-1.63 4.87a21.92 21.92 0 00-4.91 7.46c-1.51 3.92-1.92 9.09-1.21 10.79s1.91 1.8 3.37 1.92 5.5.29 6.79-.42 1.34-1.45 1.63-4.37a32.55 32.55 0 012.17-8.13c1.12-3.22 4.25-7.37 5.2-10.22s2-7-.33-11.28zm-.92 6.42a18 18 0 01-.7 3.13s-2.09-6.09-2.75-6.21-.67.5-.59.62 3.25 6.71 3.17 7-.67 2-.75 1.67-2-5.21-2.46-5.21-.92.37-.75.62 2.79 5.05 2.63 5.55-.88 2-.88 1.7a17.83 17.83 0 00-2-4.16c-.33-.13-.87.16-.62.41A26.22 26.22 0 0142.63 30c-.12.25-.62 1.12-.75 1s-1.58-3.75-2-3.75-.58.29-.54.41a43.66 43.66 0 011.87 4.55c-.08.29-.75 2.08-.83 1.91s-1.79-4.66-2.08-4.62-.46.87-.46.87 2.25 4.42 2.21 4.71a30.84 30.84 0 00-1.71 5.13 31.36 31.36 0 01-.67 3.5c0-.13-2.79-5.8-2.91-5.8s-1 .38-.67.88 2.62 5 2.92 5.46.58.75.33 1.21-.54.87-.92.83a2 2 0 01-.71-.25s.59-.25.42-.54a29.48 29.48 0 01-1.75-3.71c-.37-1.17-.37-1.21-.71-1.21s-.62.42-.37 1 2 4.21 2 4.42-1.25.33-1.25.12S32.8 43 32.3 43s-.67.63-.46.8 1.42 2.5 1.08 2.45-1.62.09-2-.41-.79-2-.33-5.25a18.86 18.86 0 013.62-9.25c2.13-2.67 4.3-4.5 4-7.67s-2.21-5.32-4.58-5.36-5.46.46-6.75 3-.79 4-1.21 4.08-6.16-.13-6.16-.13a11.93 11.93 0 01-1.21-8.5 13 13 0 016.62-8.5A15.82 15.82 0 0137.38 7a12.16 12.16 0 017.92 7.75c.83 2.47 1.16 3.56.91 5.39zM42.88 14a.86.86 0 00-.37.67c0 .17.08.33 1 1.29s1.79 4.63 2 4.88 0 0 .25-.17-.38-1.87-.92-4-1.62-2.86-1.96-2.67zm-5.54 18.43a.85.85 0 00-.71.67 27.64 27.64 0 001.79 4c.17.08.38-.08.46-.33s-1.28-4.34-1.54-4.34zm-2.25 2.71a47.28 47.28 0 002.29 5.29c.21.25.17 0 .38-.41s-1.67-5.32-1.88-5.34a.72.72 0 00-.79.46zM21.3 14c-.38.25-1.21 1.59-1.46 4.21s.33 3.83.62 4 .67.17.84-.41-.59-1.38-.46-2.63a12.79 12.79 0 011.67-4.67c.75-1.11-.84-.78-1.21-.5zm10.33 36.06c-1.29.25-4.87 1.16-5.17 3.87s.38 5.38 4.34 5.84 7.29-1.13 8-2.09a4.64 4.64 0 00.46-5c-1.09-2.33-4.77-3.18-7.63-2.62zm5.92 5.08c-.5 0-1-2.25-1.5-2.29s-1.17-.21-.71.42 1.75 3.12 1.46 3.25-.67.66-.75.54-1.21-3.17-1.5-3.25-.84.25-.63.54 1.21 3 1.21 3-.37.5-.58.17A25.21 25.21 0 0033.3 55c-.17 0-.71.29-.63.5s1.25 2.5.79 2.5a6.06 6.06 0 01-4.16-.88c-1.75-1.25-.92-4.67 3.29-5.54a5.59 5.59 0 014 .79c.5.48 1.46 2.73.96 2.77zM31 53.43a2.43 2.43 0 00-1 3 1 1 0 001.34.71c.37-.12-.13-.41-.3-1.21s.42-1.45.59-2-.42-.66-.63-.5z"/></svg><svg class="hbi hbi-list-task" viewBox="0 0 16 16" id="task" xmlns="http://www.w3.org/2000/svg"><path d="M2 2.5a.5.5 0 00-.5.5v1a.5.5 0 00.5.5h1a.5.5 0 00.5-.5V3a.5.5 0 00-.5-.5H2zM3 3H2v1h1V3zM5 3.5a.5.5 0 01.5-.5h9a.5.5 0 010 1h-9a.5.5 0 01-.5-.5zM5.5 7a.5.5 0 000 1h9a.5.5 0 000-1h-9zm0 4a.5.5 0 000 1h9a.5.5 0 000-1h-9zM1.5 7a.5.5 0 01.5-.5h1a.5.5 0 01.5.5v1a.5.5 0 01-.5.5H2a.5.5 0 01-.5-.5V7zM2 7h1v1H2V7zm0 3.5a.5.5 0 00-.5.5v1a.5.5 0 00.5.5h1a.5.5 0 00.5-.5v-1a.5.5 0 00-.5-.5H2zm1 .5H2v1h1v-1z"/></svg></svg>